<?xml version="1.0" encoding="utf-8"?>
<!-- Generator: Adobe Illustrator 18.1.0, SVG Export Plug-In . SVG Version: 6.00 Build 0)  -->
<svg version="1.1" id="Слой_1" xmlns="http://www.w3.org/2000/svg" xmlns:xlink="http://www.w3.org/1999/xlink" x="0px" y="0px"
	 viewBox="0 0 103 117.6" enable-background="new 0 0 103 117.6" xml:space="preserve">
<g>
	<g>
		<defs>
			<rect id="SVGID_1_" x="0" y="0" width="103" height="114.2"/>
		</defs>
		<clipPath id="SVGID_2_">
			<use xlink:href="#SVGID_1_"  overflow="visible"/>
		</clipPath>
		<path clip-path="url(#SVGID_2_)" fill="#1D71B8" d="M103,47.9C103,19.8,78.3,0,51.5,0C24.7,0,0,19.8,0,47.9
			C0,78,21.6,99.3,51.5,99.3c17.8,0.9,12.2,14,12.1,14.9C83.7,99.9,103,81.1,103,47.9 M51.1,81.3c-17.2,0-31.2-14-31.2-31.2
			c0-17.2,13.9-31.2,31.2-31.2c17.2,0,31.2,14,31.2,31.2C82.3,67.3,68.3,81.3,51.1,81.3"/>
	</g>
	<circle fill="#FFFFFF" cx="52.2" cy="50.7" r="40.6"/>
	<g>
		<defs>
			<rect id="SVGID_3_" x="0" y="3.4" width="103" height="114.2"/>
		</defs>
		<clipPath id="SVGID_4_">
			<use xlink:href="#SVGID_3_"  overflow="visible"/>
		</clipPath>
	</g>
	<text transform="matrix(1 0 0 1 29.1817 76.3925)" fill="#1D71B8" font-family="'PFDinTextPro-Regular'" font-size="19.1297">БАЛІВ</text>
</g>
</svg>
