<?xml version="1.0" encoding="utf-8"?>
<!-- Generator: Adobe Illustrator 18.1.0, SVG Export Plug-In . SVG Version: 6.00 Build 0)  -->
<svg version="1.1" id="Layer_1" xmlns="http://www.w3.org/2000/svg" xmlns:xlink="http://www.w3.org/1999/xlink" x="0px" y="0px"
	 viewBox="0 0 773 189.3" enable-background="new 0 0 773 189.3" xml:space="preserve">
<g>
	<polygon fill="#FFFFFF" points="525.8,137.7 503.5,137.7 503.5,110.8 522.5,110.8 522.5,87.3 503.5,87.3 503.5,64.1 523.7,64.1 
		523.7,39.4 473.5,39.4 473.5,162.4 525.8,162.4 525.8,137.7 	"/>
	<polygon fill="#FFFFFF" points="291.6,63.8 300.9,63.8 300.9,162.4 331,162.4 331,39.1 261.5,39.1 261.5,162.4 291.6,162.4 
		291.6,63.8 	"/>
	<polygon fill="#FFFFFF" points="251.2,135.4 226.9,135.4 226.9,105.6 247.6,105.6 247.6,79.8 226.9,79.8 226.9,54 249.1,54 
		249.1,27.1 193.8,27.1 193.8,162.4 251.2,162.4 251.2,135.4 	"/>
	<polygon fill="#FFFFFF" points="566.1,110.8 575.5,110.8 575.5,162.4 605.6,162.4 605.6,39.4 575.5,39.4 575.5,83.6 566.1,83.6 
		566.1,39.4 536.1,39.4 536.1,162.4 566.1,162.4 566.1,110.8 	"/>
	<polygon fill="#FFFFFF" points="631.8,162.4 661.9,162.4 661.9,64.1 679.9,64.1 679.9,39.4 614.1,39.4 614.1,64.1 631.8,64.1 
		631.8,162.4 	"/>
	<polygon fill="#FFFFFF" points="371.4,39.4 341.3,39.4 341.3,162.4 371.4,162.4 371.4,39.4 	"/>
	<polygon fill="#FFFFFF" points="464.9,135.4 458,135.4 458,27.1 424.9,27.1 424.9,135.4 414.7,135.4 414.7,27.1 381.6,27.1 
		381.6,162.4 442.1,162.4 442.1,175.8 464.9,175.8 464.9,135.4 	"/>
	<g>
		<path fill="#FFFFFF" d="M752.3,56.8c-0.8-3.7-2.3-6.8-4.5-9.4c-2.2-2.6-5.6-4.6-10-5.9c-4.4-1.4-10.7-2.1-18.9-2.1h-30.4v123h30.1
			v-49.6h8.1c6.6,0,11.9-1,16-2.9c4.1-1.9,6.9-4.7,8.4-8.3c1.5-3.6,2.3-9.3,2.3-17.2V73.8C753.4,66.1,753,60.4,752.3,56.8z
			 M721.5,89.5c-8.8,0-15.9-7.2-15.9-15.9c0-8.8,7.2-15.9,15.9-15.9c8.8,0,15.9,7.2,15.9,15.9C737.4,82.3,730.3,89.5,721.5,89.5z"/>
		<path fill="#FFFFFF" d="M721.5,61.4c-6.7,0-12.1,5.4-12.1,12.1c0,6.7,5.4,12.1,12.1,12.1c6.7,0,12.1-5.4,12.1-12.1
			C733.6,66.9,728.2,61.4,721.5,61.4z M723.7,81.5l-3.4-6.6v6.6h-5.1V65.6h5.1v6.8l3.2-6.8h5.8l-4.3,7.8l4.9,8H723.7z"/>
	</g>
	<g>
		<path fill="#FFFFFF" d="M768.3,52.5l-1.6-2.5c-0.3-0.5-0.6-0.9-1-1.2c0.4-0.2,0.8-0.4,1.1-0.7c0.5-0.5,0.8-1.2,0.8-2
			c0-0.6-0.2-1.2-0.5-1.7c-0.3-0.5-0.8-0.9-1.3-1.1c-0.5-0.2-1.2-0.3-2.1-0.3h-4.1h-0.5v0.5v9.3v0.5h0.5h1.2h0.5v-0.5v-3.6h0.9
			c0.4,0,0.5,0,0.6,0c0.1,0,0.2,0.1,0.4,0.2c0.1,0.1,0.2,0.2,0.5,0.5c0.2,0.3,0.5,0.7,0.9,1.2c0,0,1.2,1.9,1.2,1.9l0.2,0.2h0.3h1.5
			h1L768.3,52.5z M765.1,46.6c-0.1,0.2-0.3,0.3-0.5,0.3c-0.3,0.1-0.6,0.1-1.1,0.1h-2.1v-2h2.4c0.5,0,0.9,0.1,1.2,0.3
			c0.2,0.2,0.3,0.4,0.3,0.7C765.3,46.3,765.2,46.5,765.1,46.6z"/>
		<path fill="#FFFFFF" d="M771,48.2c0,4.2-3.4,7.6-7.6,7.6c-4.2,0-7.6-3.4-7.6-7.6c0-4.2,3.4-7.6,7.6-7.6
			C767.6,40.6,771,44,771,48.2z M763.4,38.6c-5.3,0-9.6,4.3-9.6,9.6c0,5.3,4.3,9.6,9.6,9.6s9.6-4.3,9.6-9.6
			C773,42.9,768.7,38.6,763.4,38.6z"/>
	</g>
	<path fill="#FFFFFF" d="M95,25.9V12.3C95,5.5,89.4,0,82.7,0c-6.8,0-12.3,5.5-12.3,12.3v13.5C30.6,31.5,0,65.8,0,107.1
		c0,45.3,36.9,82.2,82.2,82.2s82.2-36.9,82.2-82.2C164.5,66.1,134.3,32,95,25.9z M82.2,174.3c-37.1,0-67.2-30.2-67.2-67.2
		c0-33,23.9-60.5,55.4-66.2v14.7c0,4,1.9,7.6,5,9.9v12.4H47.6c-3.2,0-6.1,1.6-7.8,4.4c-1.6,2.7-1.7,6.2-0.3,8.9l35,66.8
		c1.6,3,4.7,4.9,8.1,4.9c3.4,0,6.5-1.9,8-4.9l35-66.8c1.5-2.8,1.4-6.2-0.3-9c-1.6-2.7-4.6-4.3-7.8-4.3H90V65.6c3.1-2.3,5-5.9,5-9.9
		V41.1c31,6,54.5,33.3,54.5,66C149.5,144.2,119.3,174.3,82.2,174.3z"/>
</g>
</svg>
