<?xml version="1.0" encoding="utf-8"?>
<!-- Generator: Adobe Illustrator 18.1.0, SVG Export Plug-In . SVG Version: 6.00 Build 0)  -->
<svg version="1.1" id="Layer_1" xmlns="http://www.w3.org/2000/svg" xmlns:xlink="http://www.w3.org/1999/xlink" x="0px" y="0px"
	 viewBox="0 0 478.1 115" enable-background="new 0 0 478.1 115" xml:space="preserve">
<rect x="104.8" y="3" fill="#1D71B8" width="373.3" height="108.5"/>
<g>
	<path fill="#FFF12D" d="M437.7,86.7c-2-0.1-3.8-1.6-3.7-3.7c0.2-3.3,2.5-8.5,5.6-8.7c3.5-0.4,8.4,0.8,8,4.3
		C447.2,83.3,442.3,87.1,437.7,86.7z M449.1,56.8c-0.3,2.8-2.9,7.1-6.2,7.1c-4.4,0-4.8-4.6-4.9-8.1c-0.1-4.2,8.5-42,17-42
		c3.2,0,2.8,4.5,2.8,6.9C457.7,24.4,450.4,47,449.1,56.8z"/>
</g>
<g>
	<g>
		<path fill="#FFFFFF" d="M220.3,69.5c0,1.7-0.3,3.3-0.8,4.8c-0.5,1.5-1.3,2.8-2.3,3.9c-1,1.1-2.3,2-3.7,2.6
			c-1.5,0.6-1.5,0.6-1.5,0.6c-2,0.2-5.3,0.3-7.3,0.3h-12.6c-2,0-3.7-1.6-3.7-3.6V44.7c0-2,1.7-3.6,3.7-3.6h11.8c2,0,5.3,0.1,7.3,0.3
			c0,0,0.3,0,1.8,0.6c1.5,0.6,2.7,1.4,3.7,2.4c1,1,1.7,2.2,2.1,3.5c0.4,1.3,0.7,2.7,0.7,4.2c0,0.7-0.1,1.5-0.3,2.2
			c-0.2,0.8-0.5,1.6-1,2.3c-0.4,0.7-0.9,1.4-1.6,2.1c-0.6,0.6-0.6,0.6-0.6,0.6c-0.9,0.5-0.7,1.4,0.3,2c0,0,0,0,0.7,0.7
			c0.7,0.7,1.3,1.5,1.8,2.4c0.5,0.8,0.8,1.7,1.1,2.6C220.2,67.9,220.3,68.8,220.3,69.5z M209.7,53.3c0-1.1-0.3-2.1-1-2.8
			c-0.7-0.7-0.7-0.7-0.7-0.7c-1.7-0.2-4.6-0.4-6.6-0.4s-3.6,1.6-3.6,3.6v0.1c0,2,1.6,3.6,3.6,3.6s4.9-0.1,6.4-0.3c0,0,0,0,0.7-0.6
			S209.7,54.3,209.7,53.3z M210.1,69.1c0-1.3-0.4-2.3-1.1-3.2c-0.7-0.9-0.7-0.9-0.7-0.9c-1.6-0.2-4.5-0.4-6.5-0.4h-0.2
			c-2,0-3.7,1.6-3.7,3.6v1.4c0,2,1.7,3.6,3.7,3.6h0.2c2,0,4.9-0.2,6.4-0.4c0,0,0,0,0.8-0.8S210.1,70.4,210.1,69.1z"/>
	</g>
	<g>
		<path fill="#FFFFFF" d="M253,57.7c-0.1,0-1,1.4-2.1,3l-11.7,17.9c-1.1,1.7-3.7,3-5.7,3h-1.1c-2,0-3.7-1.6-3.7-3.6V44.7
			c0-2,1.7-3.6,3.7-3.6h2.1c2,0,3.7,1.6,3.7,3.6v17c0,2,0,3.6,0.1,3.6s1-1.4,2.1-3.1l11.8-18.2c1.1-1.7,3.6-3.1,5.7-3.1h1.1
			c2,0,3.7,1.6,3.7,3.6V78c0,2-1.7,3.6-3.7,3.6h-2.1c-2,0-3.7-1.6-3.7-3.6V61.3C253.1,59.3,253,57.7,253,57.7z"/>
	</g>
	<g>
		<path fill="#FFFFFF" d="M276.1,81.6c-2,0-3.7-1.6-3.7-3.6V44.7c0-2,1.7-3.6,3.7-3.6h21.3c2,0,3.7,1.6,3.7,3.6v1
			c0,2-1.7,3.6-3.7,3.6h-11.8c-2,0-3.7,1.6-3.7,3.6v25c0,2-1.7,3.6-3.7,3.6H276.1z"/>
	</g>
	<g>
		<path fill="#FFFFFF" d="M336.6,65.2c0,2-0.2,5.3-0.4,7.2c0,0-0.1,0.6-0.9,2.2c-0.9,1.6-2,3-3.5,4.1c-1.5,1.1-3.2,1.9-5.1,2.5
			c-1.9,0.5-4,0.8-6.1,0.8s-4.2-0.3-6.1-0.8c-1.9-0.5-3.6-1.4-5.1-2.5c-1.5-1.1-2.7-2.5-3.5-4.1c-0.9-1.6-0.9-2.2-0.9-2.2
			c-0.2-2-0.4-5.2-0.4-7.2v-8c0-2,0.2-5.3,0.4-7.2c0,0,0.1-0.5,1-2.2c1-1.6,2.2-2.9,3.7-4c1.5-1.1,3.2-1.8,5.1-2.4
			c1.9-0.5,3.8-0.8,5.8-0.8c1.9,0,3.9,0.3,5.8,0.8c1.9,0.6,3.6,1.4,5.2,2.4c1.5,1.1,2.8,2.4,3.7,4.1c0.9,1.6,1,2.2,1,2.2
			c0.2,2,0.4,5.2,0.4,7.2V65.2z M327.2,59.2c0-2-0.1-4.6-0.2-5.8c0,0,0,0-0.4-0.8c-0.4-0.8-0.9-1.5-1.5-1.9
			c-0.6-0.5-1.3-0.9-2.1-1.1c-0.8-0.2-1.6-0.4-2.3-0.4c-0.8,0-1.6,0.1-2.3,0.4s-1.5,0.6-2.1,1.1c-0.6,0.5-1.2,1.1-1.5,1.9
			c-0.4,0.8-0.4,0.8-0.4,0.8c-0.1,1.2-0.2,3.8-0.2,5.8v4.2c0,2,0.1,4.6,0.2,5.8c0,0,0,0,0.4,0.8c0.4,0.8,0.9,1.5,1.5,1.9
			c0.6,0.5,1.3,0.9,2.1,1.1c0.8,0.2,1.6,0.4,2.3,0.4c0.8,0,1.5-0.1,2.3-0.4c0.8-0.2,1.5-0.6,2.1-1.1c0.6-0.5,1.1-1.1,1.5-1.9
			c0.4-0.8,0.4-0.8,0.4-0.8c0.1-1.2,0.2-3.8,0.2-5.8V59.2z"/>
	</g>
	<g>
		<path fill="#FFFFFF" d="M375.5,41.1c2,0,3.7,1.6,3.7,3.6v25.1c0,2,0.8,3.6,1.8,3.6s1.8,1.6,1.8,3.6v10.2c0,2-1.7,3.6-3.7,3.6h-1.1
			c-2,0-3.7-1.6-3.7-3.6v-2c0-2-1.7-3.6-3.7-3.6h-17.2c-2,0-3.7,1.6-3.7,3.6v2c0,2-1.7,3.6-3.7,3.6H345c-2,0-3.7-1.6-3.7-3.6V77.1
			c0-2,0.7-3.6,1.5-3.6s2.3-0.7,3.2-1.5c0,0,0,0,0.6-0.9c0.6-0.9,1.1-2,1.5-3.2c0.4-1.2,0.7-2.7,0.9-4.3c0.2-1.6,0.2-2,0.2-2
			c0.1-2,0.3-5.3,0.5-7.3l0.5-9.6c0.1-2,1.8-3.6,3.9-3.6H375.5z M369.9,52.9c0-2-1.7-3.6-3.7-3.6h-3.5c-2,0-3.8,1.6-3.9,3.6
			l-0.1,1.5c-0.1,2-0.3,4.8-0.4,6.2c0,0,0,0-0.1,1.4c-0.1,1.4-0.2,2.7-0.5,4.1c-0.2,1.4-0.6,2.7-1,3.9c-0.4,1.3-0.4,1.3-0.4,1.3
			c-0.7,1.3,0.4,2.3,2.4,2.3h7.4c2,0,3.7-1.6,3.7-3.6V52.9z"/>
	</g>
	<g>
		<path fill="#FFFFFF" d="M414.7,77.1c-0.6-1.9-2.7-3.5-4.8-3.5H404c-2,0-4.1,1.6-4.7,3.5l-0.3,1c-0.6,1.9-2.7,3.5-4.7,3.5h-2.8
			c-2,0-3.1-1.5-2.5-3.4l12-33.7c0.7-1.9,2.9-3.4,4.9-3.4h2.4c2,0,4.2,1.5,4.9,3.4L425,78.2c0.7,1.9-0.4,3.4-2.5,3.4h-2.8
			c-2,0-4.2-1.6-4.8-3.5L414.7,77.1z M403.2,64.6c-0.2,0.8,1.2,1.4,3.3,1.4h1.1c2,0,3.5-0.6,3.3-1.4c-0.2-0.8-0.9-3-1.4-4.9
			l-1.2-4.2c-0.6-1.9-1.1-3.5-1.1-3.5c-0.1,0-0.6,1.6-1.1,3.5l-1.2,4.2C404,61.6,403.4,63.8,403.2,64.6z"/>
	</g>
</g>
<g>
	<defs>
		<rect id="SVGID_1_" x="104.8" y="0" width="100.1" height="115"/>
	</defs>
	<clipPath id="SVGID_2_">
		<use xlink:href="#SVGID_1_"  overflow="visible"/>
	</clipPath>
	<g clip-path="url(#SVGID_2_)">
		<g opacity="0.5">
			<path fill="#12558C" fill-opacity="0" d="M167,58.5c0,28.5-5.5,52.4-9.5,52.4c-4,0-7.3-23.1-7.3-51.5s3.2-55.1,7.3-55.1
				C161.5,4.3,167,30.1,167,58.5z"/>
			<path fill="#185386" fill-opacity="3.846154e-02" d="M166.7,58.6c0,28.2-5.3,51.8-9.2,51.8c-3.9,0-7.1-22.8-7.1-51
				S153.6,5,157.5,5C161.4,5,166.7,30.4,166.7,58.6z"/>
			<path fill="#1B5180" fill-opacity="7.692308e-02" d="M166.4,58.7c0,27.9-5.1,51.2-8.9,51.2c-3.8,0-6.9-22.6-6.9-50.5
				s3.1-53.7,6.9-53.7C161.3,5.7,166.4,30.8,166.4,58.7z"/>
			<path fill="#1E4F7C" fill-opacity="0.1154" d="M166.1,58.7c0,27.6-4.9,50.7-8.6,50.7c-3.7,0-6.7-22.4-6.7-49.9s3-53,6.6-53
				C161.2,6.4,166.1,31.1,166.1,58.7z"/>
			<path fill="#204D77" fill-opacity="0.1538" d="M165.8,58.8c0,27.3-4.8,50.1-8.3,50.1c-3.6,0-6.5-22.1-6.5-49.4s2.9-52.4,6.4-52.4
				S165.8,31.5,165.8,58.8z"/>
			<path fill="#224B73" fill-opacity="0.1923" d="M165.5,58.9c0,27-4.6,49.5-8,49.5c-3.4,0-6.2-21.9-6.2-48.9s2.8-51.7,6.2-51.7
				S165.5,31.9,165.5,58.9z"/>
			<path fill="#244A6E" fill-opacity="0.2308" d="M165.2,58.9c0,26.7-4.4,49-7.7,49s-6-21.6-6-48.3s2.7-51,6-51
				S165.2,32.2,165.2,58.9z"/>
			<path fill="#25486A" fill-opacity="0.2692" d="M164.9,59c0,26.4-4.2,48.4-7.5,48.4s-5.8-21.4-5.8-47.8s2.6-50.4,5.8-50.4
				S164.9,32.6,164.9,59z"/>
			<path fill="#264665" fill-opacity="0.3077" d="M164.6,59c0,26.1-4.1,47.8-7.2,47.8s-5.6-21.2-5.6-47.3s2.5-49.7,5.6-49.7
				S164.6,32.9,164.6,59z"/>
			<path fill="#274461" fill-opacity="0.3462" d="M164.3,59.1c0,25.8-3.9,47.3-6.9,47.3c-3,0-5.4-20.9-5.4-46.7s2.4-49,5.4-49
				S164.3,33.3,164.3,59.1z"/>
			<path fill="#28425D" fill-opacity="0.3846" d="M164,59.2c0,25.5-3.7,46.7-6.6,46.7c-2.9,0-5.2-20.7-5.2-46.2s2.3-48.4,5.2-48.4
				S164,33.7,164,59.2z"/>
			<path fill="#294059" fill-opacity="0.4231" d="M163.7,59.2c0,25.2-3.5,46.1-6.3,46.1s-5-20.4-5-45.7s2.2-47.7,5-47.7
				C160.2,12,163.7,34,163.7,59.2z"/>
			<path fill="#293E55" fill-opacity="0.4615" d="M163.4,59.3c0,24.9-3.3,45.6-6,45.6s-4.8-20.2-4.8-45.1s2.1-47,4.8-47
				C160,12.7,163.4,34.4,163.4,59.3z"/>
			<path fill="#2A3C51" fill-opacity="0.5" d="M163.1,59.4c0,24.6-3.2,45-5.7,45c-2.5,0-4.6-20-4.6-44.6s2.1-46.4,4.6-46.4
				C159.9,13.4,163.1,34.7,163.1,59.4z"/>
			<path fill="#2A3A4E" fill-opacity="0.5385" d="M162.8,59.4c0,24.3-3,44.4-5.4,44.4c-2.4,0-4.4-19.7-4.4-44.1s2-45.7,4.4-45.7
				C159.8,14.1,162.8,35.1,162.8,59.4z"/>
			<path fill="#2A394A" fill-opacity="0.5769" d="M162.5,59.5c0,24-2.8,43.9-5.1,43.9c-2.3,0-4.2-19.5-4.2-43.5s1.9-45,4.2-45
				C159.7,14.8,162.5,35.5,162.5,59.5z"/>
			<path fill="#2A3746" fill-opacity="0.6154" d="M162.2,59.6c0,23.7-2.6,43.3-4.8,43.3s-4-19.3-4-43s1.8-44.4,4-44.4
				C159.5,15.5,162.2,35.8,162.2,59.6z"/>
			<path fill="#2A3543" fill-opacity="0.6538" d="M161.9,59.6c0,23.5-2.5,42.7-4.5,42.7s-3.8-19-3.8-42.5s1.7-43.7,3.8-43.7
				C159.4,16.2,161.9,36.2,161.9,59.6z"/>
			<path fill="#2A333F" fill-opacity="0.6923" d="M161.6,59.7c0,23.2-2.3,42.2-4.3,42.2s-3.6-18.8-3.6-41.9s1.6-43,3.6-43
				S161.6,36.5,161.6,59.7z"/>
			<path fill="#2A313C" fill-opacity="0.7308" d="M161.3,59.8c0,22.9-2.1,41.6-4,41.6S154,82.8,154,60s1.5-42.3,3.4-42.3
				S161.3,36.9,161.3,59.8z"/>
			<path fill="#292F38" fill-opacity="0.7692" d="M161,59.8c0,22.6-1.9,41.1-3.7,41.1s-3.2-18.3-3.2-40.9s1.4-41.7,3.2-41.7
				S161,37.3,161,59.8z"/>
			<path fill="#292D35" fill-opacity="0.8077" d="M160.7,59.9c0,22.3-1.7,40.5-3.4,40.5s-3-18.1-3-40.3s1.3-41,3-41
				S160.7,37.6,160.7,59.9z"/>
			<path fill="#292B32" fill-opacity="0.8462" d="M160.4,60c0,22-1.6,39.9-3.1,39.9s-2.8-17.8-2.8-39.8s1.2-40.3,2.7-40.3
				S160.4,38,160.4,60z"/>
			<path fill="#28292E" fill-opacity="0.8846" d="M160.1,60c0,21.7-1.4,39.4-2.8,39.4c-1.4,0-2.5-17.6-2.5-39.3s1.1-39.7,2.5-39.7
				C158.7,20.5,160.1,38.3,160.1,60z"/>
			<path fill="#27272B" fill-opacity="0.9231" d="M159.8,60.1c0,21.4-1.2,38.8-2.5,38.8c-1.3,0-2.3-17.3-2.3-38.7s1-39,2.3-39
				C158.6,21.2,159.8,38.7,159.8,60.1z"/>
			<path fill="#262527" fill-opacity="0.9615" d="M159.5,60.2c0,21.1-1,38.2-2.2,38.2c-1.2,0-2.1-17.1-2.1-38.2s1-38.3,2.1-38.3
				C158.4,21.9,159.5,39.1,159.5,60.2z"/>
			<ellipse fill="#252324" cx="157.2" cy="60.2" rx="1.9" ry="37.7"/>
		</g>
		<path fill="#175E9A" d="M152,111.9H6.8c-3.8,0-6.8-3-6.8-6.8V9.9c0-3.8,3-6.8,6.8-6.8H152c3.8,0,6.8,3,6.8,6.8v95.2
			C158.8,108.9,155.7,111.9,152,111.9z"/>
		<g opacity="0.5">
			<path opacity="0" fill="#FFFFFF" d="M156.1,65.1c2,8.2,1.6,16.9,1.8,25.2c0.2,5.6,1.6,17.5-2.8,19.4c-4.5,1.9-14.5,1.1-20.9,1
				c-9.5-0.1-19-0.4-28.5-0.5c-2.7,0-31.7,1.4-30.4-3.4c0.7-2.8,25.7-5.7,28.1-6.4c7.3-2.2,14.9-3.2,22.5-3.7
				c6.2-0.4,14,0.9,18.5-4.4c3-3.5,2.6-7.2,1.8-11.3c-0.9-4.9-0.6-10.8,0.5-15.6c0.6-2.4,3-7.1,6.3-5.4
				C154.5,60.8,155.5,62.7,156.1,65.1z"/>
			<path opacity="3.846154e-02" fill="#EDEFF6" d="M153,60.2c0.4,0.2,0.7,0.4,1,0.7c0.7,0.7,1.3,1.8,1.7,3.1
				c0.1,0.4,0.2,0.8,0.3,1.2c0.9,3.8,1.3,7.7,1.5,11.6c0.1,2.9,0.2,5.8,0.2,8.6c0,1.6,0,3.1,0.1,4.7c0,0.5,0,1,0.1,1.5
				c0,0.5,0.1,1.1,0.1,1.6c0.1,1.1,0.1,2.2,0.2,3.4c0,1.2,0.1,2.4,0,3.6c0,1.5-0.1,2.9-0.3,4.2c-0.4,2.4-1.2,4.5-2.7,5.2
				c-2.3,1-6.2,1.2-10.2,1.2c-3.5,0-7.3-0.2-10.3-0.2c-9.4-0.1-18.9-0.4-28.1-0.5c-2.7-0.1-31.3,1.4-30.2-3.3
				c0.6-2.7,25.2-5.5,27.9-6.3c5.4-1.5,10.9-2.5,16.3-3.1c2-0.2,4-0.4,6-0.5c0.8-0.1,1.6-0.1,2.5-0.1c2.6,0,5.3,0,7.8-0.4
				c2.6-0.4,4.9-1.2,6.8-2.9c0.4-0.3,0.7-0.7,1.1-1.1c1.6-2,2.2-4.1,2.3-6.2c0-0.7,0-1.4-0.1-2.1c-0.1-0.7-0.2-1.4-0.3-2
				c0-0.3-0.1-0.6-0.1-0.9c-0.2-1-0.3-2-0.4-3c-0.2-2.3-0.2-4.8,0-7.2c0.2-1.9,0.5-3.7,0.8-5.4c0.3-1.4,1.2-3.4,2.4-4.6
				C150.4,60.1,151.6,59.6,153,60.2z"/>
			<path opacity="7.692308e-02" fill="#E1E5EF" d="M153,60.5c0.3,0.2,0.7,0.4,1,0.7c0.7,0.7,1.3,1.8,1.7,3.1
				c0.1,0.4,0.2,0.8,0.3,1.2c0.9,3.7,1.3,7.6,1.5,11.5c0.1,2.8,0.2,5.7,0.2,8.5c0,1.5,0,3.1,0.1,4.6c0,0.5,0,1,0.1,1.5
				c0,0.5,0.1,1.1,0.1,1.6c0.1,1.1,0.1,2.2,0.2,3.4c0,1.2,0.1,2.4,0,3.6c0,1.5-0.1,2.9-0.3,4.2c-0.4,2.4-1.1,4.5-2.7,5.2
				c-2.3,1-6.2,1.2-10.1,1.2c-3.4,0-7.2-0.2-10.2-0.2c-9.3-0.1-18.9-0.4-27.7-0.5c-2.7-0.1-30.9,1.4-29.9-3.2
				c0.6-2.6,24.7-5.3,27.7-6.1c5.5-1.4,11-2.4,16.2-3c2-0.2,3.9-0.3,5.9-0.5c0.8,0,1.6-0.1,2.4-0.1c2.5,0,5.2,0,7.7-0.5
				c2.5-0.4,4.8-1.3,6.7-3c0.4-0.3,0.7-0.7,1-1.1c1.6-2,2.1-4,2.2-6.2c0-0.7,0-1.4-0.1-2.1c-0.1-0.7-0.2-1.3-0.3-2
				c0-0.3-0.1-0.6-0.1-0.9c-0.2-1-0.3-2-0.4-3c-0.2-2.3-0.2-4.7,0.1-7.1c0.2-1.8,0.4-3.6,0.8-5.3c0.3-1.4,1.1-3.4,2.3-4.6
				C150.5,60.4,151.7,59.8,153,60.5z"/>
			<path opacity="0.1154" fill="#D5DBEA" d="M153,60.7c0.3,0.2,0.6,0.4,0.9,0.8c0.7,0.7,1.2,1.8,1.6,3.1c0.1,0.4,0.2,0.7,0.3,1.1
				c0.9,3.6,1.3,7.4,1.4,11.3c0.1,2.8,0.2,5.6,0.2,8.4c0,1.5,0,3,0.1,4.5c0,0.5,0,1,0.1,1.6c0,0.5,0.1,1.1,0.1,1.6
				c0.1,1.1,0.1,2.2,0.2,3.4c0,1.2,0.1,2.4,0,3.6c0,1.4,0,2.9-0.3,4.2c-0.4,2.3-1,4.5-2.6,5.2c-2.2,1-6.1,1.1-9.9,1.2
				c-3.3,0-7-0.2-10-0.2c-9.2-0.1-18.8-0.4-27.3-0.5c-2.8-0.1-30.5,1.3-29.6-3c0.5-2.5,24.2-5.1,27.5-5.9c5.6-1.3,11.1-2.4,16.1-2.9
				c2-0.2,3.9-0.3,5.9-0.4c0.8,0,1.6-0.1,2.4-0.1c2.5-0.1,5.2-0.1,7.6-0.5c2.5-0.5,4.7-1.4,6.5-3.1c0.4-0.3,0.7-0.7,1-1.1
				c1.5-2,2-4,2.1-6.2c0-0.7,0-1.4-0.1-2c-0.1-0.7-0.1-1.3-0.2-2c0-0.3-0.1-0.6-0.1-0.9c-0.1-1-0.3-1.9-0.3-2.9
				c-0.2-2.3-0.1-4.7,0.1-7c0.2-1.8,0.4-3.6,0.8-5.3c0.3-1.4,1.1-3.4,2.2-4.6C150.6,60.7,151.7,60.1,153,60.7z"/>
			<path opacity="0.1538" fill="#CAD2E5" d="M153,61c0.3,0.2,0.6,0.4,0.9,0.8c0.7,0.7,1.2,1.8,1.6,3.1c0.1,0.4,0.2,0.7,0.3,1.1
				c0.8,3.6,1.2,7.3,1.4,11.2c0.1,2.7,0.2,5.5,0.2,8.3c0,1.5,0,3,0.1,4.5c0,0.5,0,1,0.1,1.6c0,0.5,0.1,1.1,0.1,1.6
				c0.1,1.1,0.1,2.2,0.2,3.4c0,1.2,0,2.4,0,3.6c0,1.4,0,2.9-0.2,4.2c-0.4,2.3-1,4.5-2.5,5.3c-2.2,1-6.1,1.1-9.8,1.1
				c-3.2,0-6.8-0.1-9.9-0.2c-9.1-0.1-18.7-0.4-26.8-0.5c-2.8-0.1-30.1,1.3-29.4-2.9c0.4-2.4,23.7-5,27.3-5.8
				c5.6-1.3,11.1-2.3,16-2.8c1.9-0.2,3.9-0.3,5.8-0.4c0.8,0,1.6-0.1,2.4-0.1c2.5-0.1,5.1-0.1,7.6-0.6c2.4-0.5,4.6-1.5,6.3-3.2
				c0.3-0.3,0.7-0.7,1-1.1c1.5-2,2-4,2-6.1c0-0.7,0-1.3-0.1-2c-0.1-0.7-0.1-1.3-0.2-2c0-0.3-0.1-0.6-0.1-0.9
				c-0.1-0.9-0.2-1.9-0.3-2.9c-0.2-2.3-0.1-4.7,0.1-7c0.2-1.8,0.4-3.6,0.8-5.2c0.3-1.4,1-3.3,2.2-4.6C150.7,61,151.8,60.4,153,61z"
				/>
			<path opacity="0.1923" fill="#C0CAE0" d="M153.1,61.2c0.3,0.1,0.6,0.4,0.9,0.8c0.6,0.7,1.1,1.8,1.5,3c0.1,0.4,0.2,0.7,0.3,1.1
				c0.8,3.5,1.2,7.2,1.4,11c0.1,2.7,0.2,5.4,0.2,8.2c0,1.5,0,2.9,0.1,4.4c0,0.5,0,1,0.1,1.6c0,0.5,0.1,1.1,0.1,1.6
				c0.1,1.1,0.1,2.2,0.1,3.4c0,1.2,0,2.4,0,3.6c0,1.4,0,2.9-0.2,4.2c-0.4,2.3-0.9,4.6-2.4,5.3c-2.1,1-6,1-9.6,1.1
				c-3,0-6.6-0.1-9.7-0.2c-9-0.1-18.6-0.4-26.4-0.6c-2.9-0.1-29.7,1.3-29.1-2.7c0.3-2.3,23.1-4.8,27.1-5.6
				c5.7-1.2,11.2-2.2,15.9-2.7c1.9-0.2,3.8-0.3,5.8-0.4c0.8,0,1.6-0.1,2.4-0.1c2.5-0.1,5.1-0.1,7.5-0.7c2.4-0.5,4.5-1.5,6.1-3.3
				c0.3-0.4,0.6-0.7,0.9-1.2c1.4-2,1.9-4,1.9-6.1c0-0.7,0-1.3-0.1-2c-0.1-0.7-0.1-1.3-0.2-2c0-0.3-0.1-0.6-0.1-0.9
				c-0.1-0.9-0.2-1.9-0.3-2.9c-0.1-2.3-0.1-4.7,0.1-6.9c0.2-1.8,0.4-3.6,0.7-5.2c0.3-1.4,1-3.3,2.1-4.6
				C150.9,61.3,151.9,60.7,153.1,61.2z"/>
			<path opacity="0.2308" fill="#B6C2DB" d="M153.1,61.5c0.3,0.1,0.6,0.4,0.8,0.8c0.6,0.7,1.1,1.7,1.4,3c0.1,0.3,0.2,0.7,0.3,1.1
				c0.8,3.4,1.2,7.1,1.3,10.9c0.1,2.7,0.2,5.4,0.2,8.1c0,1.5,0,2.9,0.1,4.4c0,0.5,0,1,0.1,1.6c0,0.5,0.1,1.1,0.1,1.6
				c0.1,1.1,0.1,2.2,0.1,3.4c0,1.2,0,2.4,0,3.6c-0.1,1.4,0.1,2.9-0.2,4.2c-0.4,2.2-0.8,4.6-2.3,5.3c-2.1,1-6,1-9.4,1.1
				c-2.9,0-6.5-0.1-9.5-0.2c-8.9-0.1-18.5-0.5-26-0.6c-2.9-0.1-29.3,1.2-28.9-2.6c0.2-2.2,22.6-4.6,26.9-5.5
				c5.7-1.2,11.3-2.2,15.7-2.6c1.9-0.1,3.8-0.3,5.7-0.4c0.8,0,1.6-0.1,2.4-0.1c2.5-0.1,5.1-0.2,7.4-0.8c2.3-0.5,4.4-1.6,5.9-3.4
				c0.3-0.4,0.6-0.7,0.9-1.2c1.3-2,1.8-4,1.9-6.1c0-0.7,0-1.3-0.1-2c0-0.6-0.1-1.3-0.2-2c0-0.3-0.1-0.6-0.1-0.9
				c-0.1-0.9-0.2-1.9-0.3-2.9c-0.1-2.3-0.1-4.6,0.1-6.9c0.2-1.8,0.4-3.5,0.7-5.2c0.3-1.4,1-3.3,2-4.6C151,61.6,152,60.9,153.1,61.5z
				"/>
			<path opacity="0.2692" fill="#ACBAD6" d="M153.1,61.8c0.3,0.1,0.5,0.4,0.8,0.8c0.6,0.7,1,1.7,1.4,3c0.1,0.3,0.2,0.7,0.3,1.1
				c0.8,3.4,1.1,7,1.3,10.7c0.1,2.6,0.2,5.3,0.2,8c0,1.4,0,2.9,0.1,4.3c0,0.5,0,1,0.1,1.6c0,0.5,0.1,1.1,0.1,1.6
				c0.1,1.1,0.1,2.2,0.1,3.4c0,1.2,0,2.4,0,3.6c-0.1,1.4,0.1,2.9-0.2,4.2c-0.4,2.2-0.8,4.6-2.2,5.4c-2,1-5.9,0.9-9.3,1.1
				c-2.8,0-6.3-0.1-9.4-0.2c-8.8-0.1-18.4-0.5-25.5-0.6c-2.9-0.2-28.9,1.2-28.6-2.4c0.2-2.1,22.1-4.4,26.7-5.3
				c5.8-1.1,11.3-2.1,15.6-2.5c1.9-0.1,3.8-0.2,5.7-0.4c0.8,0,1.6-0.1,2.3-0.1c2.5-0.1,5-0.2,7.3-0.8c2.3-0.6,4.2-1.7,5.8-3.6
				c0.3-0.4,0.6-0.7,0.9-1.2c1.3-2,1.7-4,1.8-6c0-0.7,0-1.3-0.1-2c0-0.6-0.1-1.3-0.2-2c0-0.3-0.1-0.6-0.1-0.9
				c-0.1-0.9-0.2-1.9-0.2-2.9c-0.1-2.3-0.1-4.6,0.1-6.8c0.1-1.8,0.4-3.5,0.7-5.1c0.3-1.4,0.9-3.3,1.9-4.6
				C151.1,61.9,152,61.2,153.1,61.8z"/>
			<path opacity="0.3077" fill="#A3B3D1" d="M153.1,62c0.3,0.1,0.5,0.4,0.8,0.8c0.6,0.7,1,1.7,1.3,2.9c0.1,0.3,0.2,0.7,0.3,1.1
				c0.7,3.3,1.1,6.9,1.3,10.6c0.1,2.6,0.2,5.2,0.2,7.9c0,1.4,0,2.8,0.1,4.2c0,0.5,0,1,0.1,1.6c0,0.5,0.1,1.1,0.1,1.6
				c0.1,1.1,0.1,2.2,0.1,3.4c0,1.2,0,2.4,0,3.6c-0.1,1.4,0.1,2.9-0.2,4.2c-0.4,2.1-0.7,4.6-2.1,5.4c-1.9,1-5.9,0.9-9.1,1
				c-2.7,0-6.1-0.1-9.2-0.1c-8.7-0.1-18.3-0.5-25.1-0.6c-3-0.2-28.6,1.2-28.3-2.3c0.1-2,21.6-4.2,26.5-5.1c5.8-1.1,11.4-2,15.5-2.4
				c1.9-0.1,3.8-0.2,5.6-0.3c0.8,0,1.5-0.1,2.3-0.1c2.4-0.1,5-0.2,7.2-0.9c2.2-0.6,4.1-1.8,5.6-3.7c0.3-0.4,0.6-0.8,0.8-1.2
				c1.2-2,1.6-3.9,1.7-6c0-0.6,0-1.3-0.1-2c0-0.6-0.1-1.3-0.2-1.9c0-0.3-0.1-0.6-0.1-0.8c-0.1-0.9-0.2-1.9-0.2-2.8
				c-0.1-2.3,0-4.6,0.1-6.8c0.1-1.8,0.4-3.5,0.7-5.1c0.3-1.4,0.9-3.3,1.8-4.5C151.2,62.2,152.1,61.5,153.1,62z"/>
			<path opacity="0.3462" fill="#9AABCC" d="M153.1,62.3c0.2,0.1,0.5,0.4,0.7,0.8c0.5,0.7,1,1.7,1.3,2.9c0.1,0.3,0.2,0.7,0.3,1
				c0.7,3.2,1.1,6.7,1.2,10.4c0.1,2.5,0.2,5.1,0.2,7.7c0,1.4,0,2.8,0.1,4.2c0,0.5,0,1,0.1,1.6c0,0.5,0.1,1.1,0.1,1.6
				c0.1,1.1,0.1,2.2,0.1,3.4c0,1.2,0,2.4,0,3.6c-0.1,1.4,0.2,2.9-0.1,4.2c-0.4,2.1-0.6,4.7-2.1,5.4c-1.9,1-5.8,0.8-9,1
				c-2.5,0-5.9-0.1-9.1-0.1c-8.6-0.1-18.2-0.5-24.7-0.6c-3-0.2-28.2,1.1-28.1-2.2c0-1.9,21-4,26.3-5c5.9-1,11.5-2,15.4-2.4
				c1.9-0.1,3.7-0.2,5.6-0.3c0.8,0,1.5-0.1,2.3-0.1c2.4-0.1,4.9-0.3,7.2-1c2.2-0.6,4-1.9,5.4-3.8c0.3-0.4,0.5-0.8,0.8-1.2
				c1.2-1.9,1.6-3.9,1.6-6c0-0.6,0-1.3-0.1-1.9c0-0.6-0.1-1.3-0.2-1.9c0-0.3-0.1-0.6-0.1-0.8c-0.1-0.9-0.2-1.9-0.2-2.8
				c-0.1-2.2,0-4.5,0.1-6.7c0.1-1.8,0.4-3.5,0.6-5c0.2-1.5,0.8-3.3,1.7-4.5C151.3,62.5,152.2,61.8,153.1,62.3z"/>
			<path opacity="0.3846" fill="#91A5C8" d="M153.2,62.5c0.2,0.1,0.5,0.4,0.7,0.8c0.5,0.7,0.9,1.7,1.2,2.9c0.1,0.3,0.2,0.7,0.2,1
				c0.7,3.1,1,6.6,1.2,10.3c0.1,2.5,0.2,5,0.2,7.6c0,1.4,0,2.7,0,4.1c0,0.5,0,1,0.1,1.6c0,0.5,0.1,1.1,0.1,1.6
				c0.1,1.1,0.1,2.2,0.1,3.4c0,1.2,0,2.4,0,3.6c-0.1,1.4,0.2,2.9-0.1,4.2c-0.4,2-0.6,4.7-2,5.5c-1.8,1-5.8,0.8-8.8,1
				c-2.4,0.1-5.8-0.1-8.9-0.1c-8.5-0.1-18.1-0.5-24.2-0.6c-3-0.2-27.8,1.1-27.8-2c-0.1-1.8,20.5-3.9,26.1-4.8
				c5.9-1,11.5-1.9,15.3-2.3c1.8-0.1,3.7-0.2,5.5-0.3c0.7,0,1.5-0.1,2.3-0.1c2.4-0.1,4.9-0.3,7.1-1c2.1-0.7,3.9-2,5.2-3.9
				c0.3-0.4,0.5-0.8,0.7-1.2c1.1-1.9,1.5-3.9,1.5-5.9c0-0.6,0-1.3,0-1.9c0-0.6-0.1-1.3-0.2-1.9c0-0.3,0-0.6-0.1-0.8
				c-0.1-0.9-0.1-1.8-0.2-2.8c-0.1-2.2,0-4.5,0.2-6.7c0.1-1.8,0.4-3.4,0.6-5c0.2-1.5,0.8-3.3,1.6-4.5
				C151.5,62.8,152.3,62.1,153.2,62.5z"/>
			<path opacity="0.4231" fill="#899EC4" d="M153.2,62.8c0.2,0.1,0.4,0.4,0.7,0.8c0.5,0.7,0.9,1.6,1.2,2.8c0.1,0.3,0.2,0.7,0.2,1
				c0.6,3.1,1,6.5,1.2,10.1c0.1,2.4,0.2,5,0.2,7.5c0,1.3,0,2.7,0,4.1c0,0.5,0,1,0.1,1.6c0,0.5,0.1,1.1,0.1,1.6
				c0.1,1.1,0.1,2.2,0.1,3.4c0,1.2,0,2.4-0.1,3.6c-0.1,1.4,0.2,2.9-0.1,4.2c-0.4,2-0.5,4.7-1.9,5.5c-1.8,1-5.7,0.8-8.6,0.9
				c-2.3,0.1-5.6-0.1-8.7-0.1c-8.4-0.1-18.1-0.5-23.8-0.6c-3.1-0.2-27.4,1.1-27.6-1.9c-0.1-1.7,20-3.7,25.9-4.6
				c6-0.9,11.6-1.9,15.2-2.2c1.8-0.1,3.7-0.2,5.5-0.3c0.7,0,1.5-0.1,2.3-0.1c2.4-0.1,4.9-0.3,7-1.1c2.1-0.7,3.8-2.1,5-4
				c0.2-0.4,0.5-0.8,0.7-1.2c1-1.9,1.4-3.9,1.4-5.9c0-0.6,0-1.3,0-1.9c0-0.6-0.1-1.3-0.1-1.9c0-0.3,0-0.6-0.1-0.8
				c-0.1-0.9-0.1-1.8-0.2-2.8c-0.1-2.2,0-4.5,0.2-6.6c0.1-1.7,0.3-3.4,0.6-5c0.2-1.5,0.7-3.3,1.5-4.5
				C151.6,63.1,152.3,62.3,153.2,62.8z"/>
			<path opacity="0.4615" fill="#8198BF" d="M153.2,63c0.2,0.1,0.4,0.4,0.6,0.8c0.5,0.7,0.8,1.6,1.1,2.8c0.1,0.3,0.2,0.7,0.2,1
				c0.6,3,1,6.4,1.1,10c0.1,2.4,0.1,4.9,0.2,7.4c0,1.3,0,2.7,0,4c0,0.5,0,1,0.1,1.6c0,0.5,0.1,1.1,0.1,1.6c0.1,1.1,0.1,2.2,0.1,3.4
				c0,1.2,0,2.4-0.1,3.6c-0.1,1.4,0.3,2.9-0.1,4.2c-0.4,1.9-0.4,4.7-1.8,5.6c-1.7,1-5.7,0.7-8.5,0.9c-2.2,0.1-5.4,0-8.6-0.1
				c-8.3-0.1-18-0.5-23.4-0.6c-3.1-0.2-27,1-27.3-1.7c-0.2-1.6,19.4-3.5,25.7-4.5c6-0.9,11.6-1.8,15-2.1c1.8-0.1,3.6-0.2,5.5-0.2
				c0.7,0,1.5-0.1,2.3-0.1c2.4-0.1,4.8-0.4,6.9-1.2c2-0.7,3.7-2.1,4.9-4.1c0.2-0.4,0.5-0.8,0.7-1.2c1-1.9,1.3-3.9,1.4-5.9
				c0-0.6,0-1.3,0-1.9c0-0.6-0.1-1.3-0.1-1.9c0-0.3,0-0.5-0.1-0.8c-0.1-0.9-0.1-1.8-0.1-2.7c0-2.2,0-4.4,0.2-6.5
				c0.1-1.7,0.3-3.4,0.6-4.9c0.2-1.5,0.7-3.3,1.4-4.5C151.7,63.4,152.4,62.6,153.2,63z"/>
			<path opacity="0.5" fill="#7992BB" d="M153.2,63.3c0.2,0.1,0.4,0.4,0.6,0.8c0.4,0.7,0.8,1.6,1.1,2.8c0.1,0.3,0.2,0.6,0.2,1
				c0.6,2.9,0.9,6.3,1.1,9.8c0.1,2.4,0.1,4.8,0.2,7.3c0,1.3,0,2.6,0,3.9c0,0.5,0,1,0.1,1.6c0,0.5,0.1,1.1,0.1,1.6
				c0.1,1.1,0.1,2.2,0.1,3.4c0,1.2,0,2.4-0.1,3.6c-0.1,1.4,0.3,3,0,4.2c-0.4,1.9-0.4,4.8-1.7,5.6c-1.7,0.9-5.6,0.7-8.3,0.9
				c-2,0.1-5.3,0-8.4-0.1c-8.2-0.1-17.9-0.5-22.9-0.6c-3.1-0.2-26.6,1-27-1.6c-0.3-1.5,18.9-3.4,25.5-4.3c6.1-0.9,11.7-1.7,14.9-2
				c1.8-0.1,3.6-0.1,5.4-0.2c0.7,0,1.5-0.1,2.2-0.1c2.4-0.1,4.8-0.4,6.8-1.3c2-0.8,3.6-2.2,4.7-4.2c0.2-0.4,0.4-0.8,0.6-1.2
				c0.9-1.9,1.2-3.9,1.3-5.9c0-0.6,0-1.3,0-1.9c0-0.6-0.1-1.3-0.1-1.9c0-0.3,0-0.5-0.1-0.8c-0.1-0.9-0.1-1.8-0.1-2.7
				c0-2.2,0-4.4,0.2-6.5c0.1-1.7,0.3-3.4,0.5-4.9c0.2-1.5,0.7-3.3,1.3-4.5C151.8,63.8,152.5,62.9,153.2,63.3z"/>
			<path opacity="0.5385" fill="#728CB7" d="M153.2,63.5c0.2,0.1,0.4,0.4,0.6,0.8c0.4,0.6,0.7,1.6,1,2.8c0.1,0.3,0.1,0.6,0.2,1
				c0.6,2.9,0.9,6.1,1.1,9.7c0.1,2.3,0.1,4.7,0.2,7.2c0,1.3,0,2.6,0,3.9c0,0.5,0,1,0,1.6c0,0.5,0,1.1,0.1,1.6
				c0.1,1.1,0.1,2.2,0.1,3.4c0,1.2,0,2.4-0.1,3.6c-0.1,1.3,0.3,3,0,4.2c-0.4,1.8-0.3,4.8-1.6,5.6c-1.6,0.9-5.6,0.6-8.2,0.9
				c-1.9,0.1-5.1,0-8.3-0.1c-8.1-0.1-17.8-0.5-22.5-0.6c-3.2-0.3-26.2,1-26.8-1.5c-0.4-1.4,18.4-3.2,25.3-4.2
				c6.1-0.8,11.8-1.7,14.8-1.9c1.8-0.1,3.6-0.1,5.4-0.2c0.7,0,1.5-0.1,2.2-0.1c2.3-0.1,4.8-0.4,6.8-1.3c1.9-0.8,3.4-2.3,4.5-4.3
				c0.2-0.4,0.4-0.8,0.6-1.2c0.9-1.9,1.1-3.8,1.2-5.8c0-0.6,0-1.2,0-1.9c0-0.6-0.1-1.2-0.1-1.9c0-0.3,0-0.5,0-0.8
				c0-0.9-0.1-1.8-0.1-2.7c0-2.2,0.1-4.4,0.2-6.4c0.1-1.7,0.3-3.3,0.5-4.8c0.2-1.5,0.6-3.2,1.2-4.5C152,64.1,152.6,63.2,153.2,63.5z
				"/>
			<path opacity="0.5769" fill="#6A86B3" d="M153.2,63.8c0.2,0.1,0.3,0.4,0.5,0.8c0.4,0.6,0.7,1.6,1,2.7c0.1,0.3,0.1,0.6,0.2,0.9
				c0.5,2.8,0.9,6,1,9.5c0.1,2.3,0.1,4.6,0.2,7.1c0,1.3,0,2.5,0,3.8c0,0.5,0,1,0,1.6c0,0.5,0,1.1,0.1,1.6c0.1,1.1,0.1,2.2,0.1,3.4
				c0,1.2,0,2.4-0.1,3.6c-0.1,1.3,0.4,3,0,4.2c-0.4,1.8-0.2,4.8-1.6,5.7c-1.6,0.9-5.5,0.6-8,0.8c-1.8,0.1-4.9,0-8.1-0.1
				c-8-0.1-17.7-0.6-22.1-0.6c-3.2-0.3-25.8,0.9-26.5-1.3c-0.4-1.3,17.9-3,25.1-4c6.2-0.8,11.8-1.6,14.7-1.8
				c1.8-0.1,3.5-0.1,5.3-0.2c0.7,0,1.5-0.1,2.2-0.1c2.3-0.1,4.7-0.5,6.7-1.4c1.9-0.8,3.3-2.4,4.3-4.4c0.2-0.4,0.4-0.8,0.6-1.2
				c0.8-1.9,1.1-3.8,1.1-5.8c0-0.6,0-1.2,0-1.9c0-0.6-0.1-1.2-0.1-1.8c0-0.3,0-0.5,0-0.8c0-0.9-0.1-1.8-0.1-2.7
				c0-2.2,0.1-4.3,0.2-6.4c0.1-1.7,0.3-3.3,0.5-4.8c0.2-1.5,0.6-3.2,1.1-4.4C152.1,64.4,152.6,63.5,153.2,63.8z"/>
			<path opacity="0.6154" fill="#6381AF" d="M153.3,64c0.1,0.1,0.3,0.3,0.5,0.8c0.3,0.6,0.7,1.6,0.9,2.7c0.1,0.3,0.1,0.6,0.2,0.9
				c0.5,2.7,0.8,5.9,1,9.4c0.1,2.2,0.1,4.6,0.1,7c0,1.2,0,2.5,0,3.8c0,0.5,0,1,0,1.6c0,0.5,0,1.1,0.1,1.6c0.1,1.1,0.1,2.2,0.1,3.4
				c0,1.2,0,2.4-0.1,3.6c-0.1,1.3,0.4,3,0,4.2c-0.4,1.7-0.2,4.8-1.5,5.7c-1.5,0.9-5.5,0.5-7.8,0.8c-1.7,0.1-4.7,0-7.9-0.1
				c-7.9-0.1-17.6-0.6-21.6-0.7c-3.2-0.3-25.5,0.9-26.3-1.2c-0.5-1.2,17.3-2.9,24.9-3.8c6.2-0.8,11.9-1.5,14.6-1.7
				c1.7,0,3.5-0.1,5.3-0.1c0.7,0,1.4,0,2.2-0.1c2.3-0.1,4.7-0.5,6.6-1.5c1.9-0.9,3.2-2.5,4.1-4.5c0.2-0.4,0.4-0.8,0.5-1.2
				c0.7-1.9,1-3.8,1-5.8c0-0.6,0-1.2,0-1.8c0-0.6-0.1-1.2-0.1-1.8c0-0.3,0-0.5,0-0.8c0-0.9,0-1.8,0-2.6c0-2.2,0.1-4.3,0.2-6.3
				c0.1-1.7,0.3-3.3,0.5-4.8c0.2-1.5,0.5-3.2,1-4.4C152.2,64.7,152.7,63.7,153.3,64z"/>
			<path opacity="0.6538" fill="#5C7CAB" d="M153.3,64.3c0.1,0.1,0.3,0.3,0.5,0.8c0.3,0.6,0.6,1.5,0.9,2.7c0.1,0.3,0.1,0.6,0.2,0.9
				c0.5,2.7,0.8,5.8,1,9.2c0.1,2.2,0.1,4.5,0.1,6.8c0,1.2,0,2.5,0,3.7c0,0.5,0,1,0,1.6c0,0.5,0,1.1,0.1,1.6c0.1,1.1,0.1,2.2,0.1,3.4
				c0,1.2,0,2.4-0.1,3.6c-0.1,1.3,0.4,3,0,4.2c-0.5,1.7-0.1,4.9-1.4,5.7c-1.5,0.9-5.4,0.5-7.7,0.8c-1.5,0.1-4.6,0-7.8-0.1
				c-7.8-0.2-17.5-0.6-21.2-0.7c-3.3-0.3-25.1,0.9-26-1c-0.6-1.1,16.8-2.7,24.7-3.7c6.3-0.8,12-1.5,14.4-1.7c1.7,0,3.5-0.1,5.2-0.1
				c0.7,0,1.4,0,2.2-0.1c2.3-0.1,4.6-0.5,6.5-1.5c1.8-0.9,3.1-2.6,4-4.6c0.2-0.4,0.3-0.8,0.5-1.2c0.7-1.9,0.9-3.8,0.9-5.7
				c0-0.6,0-1.2,0-1.8c0-0.6,0-1.2-0.1-1.8c0-0.3,0-0.5,0-0.8c0-0.9,0-1.8,0-2.6c0-2.1,0.1-4.3,0.3-6.3c0.1-1.7,0.3-3.3,0.4-4.7
				c0.2-1.6,0.5-3.2,0.9-4.4C152.3,65,152.8,64,153.3,64.3z"/>
			<path opacity="0.6923" fill="#5577A7" d="M153.3,64.5c0.1,0.1,0.3,0.3,0.4,0.8c0.3,0.6,0.6,1.5,0.8,2.6c0.1,0.3,0.1,0.6,0.2,0.9
				c0.5,2.6,0.8,5.7,0.9,9.1c0.1,2.1,0.1,4.4,0.1,6.7c0,1.2,0,2.4,0,3.6c0,0.5,0,1,0,1.6c0,0.5,0,1.1,0.1,1.6
				c0.1,1.1,0.1,2.3,0.1,3.4c0,1.2,0,2.4-0.1,3.6c-0.1,1.3,0.5,3,0.1,4.2c-0.5,1.6,0,4.9-1.3,5.8c-1.4,0.9-5.4,0.5-7.5,0.8
				c-1.4,0.1-4.4,0-7.6,0c-7.7-0.2-17.4-0.6-20.8-0.7c-3.3-0.3-24.7,0.9-25.8-0.9c-0.7-1,16.3-2.6,24.5-3.5c6.3-0.7,12-1.4,14.3-1.6
				c1.7,0,3.5,0,5.2-0.1c0.7,0,1.4,0,2.1-0.1c2.3-0.1,4.6-0.6,6.5-1.6c1.8-0.9,3-2.7,3.8-4.7c0.2-0.4,0.3-0.8,0.4-1.2
				c0.6-1.9,0.8-3.8,0.9-5.7c0-0.6,0-1.2,0-1.8c0-0.6,0-1.2,0-1.8c0-0.3,0-0.5,0-0.8c0-0.9,0-1.7,0-2.6c0-2.1,0.1-4.2,0.3-6.2
				c0.1-1.7,0.3-3.2,0.4-4.7c0.2-1.6,0.4-3.2,0.9-4.4C152.5,65.3,152.9,64.3,153.3,64.5z"/>
			<path opacity="0.7308" fill="#4E72A3" d="M153.3,64.8c0.1,0,0.2,0.3,0.4,0.8c0.3,0.6,0.5,1.5,0.7,2.6c0.1,0.3,0.1,0.6,0.2,0.9
				c0.4,2.5,0.7,5.6,0.9,9c0.1,2.1,0.1,4.3,0.1,6.6c0,1.2,0,2.4,0,3.6c0,0.5,0,1,0,1.6c0,0.5,0,1.1,0.1,1.6c0.1,1.1,0.1,2.3,0.1,3.4
				c0,1.2,0,2.4-0.1,3.6c-0.1,1.3,0.5,3,0.1,4.2c-0.5,1.6,0,4.9-1.2,5.8c-1.4,0.9-5.3,0.4-7.4,0.7c-1.3,0.1-4.2,0-7.5,0
				c-7.5-0.2-17.3-0.6-20.3-0.7c-3.4-0.3-24.3,0.8-25.5-0.7c-0.8-0.9,15.7-2.4,24.3-3.3c6.4-0.7,12.1-1.3,14.2-1.5
				c1.7,0,3.4,0,5.1-0.1c0.7,0,1.4,0,2.1-0.1c2.3-0.1,4.6-0.6,6.4-1.7c1.7-1,2.9-2.7,3.6-4.8c0.1-0.4,0.3-0.8,0.4-1.2
				c0.6-1.9,0.7-3.8,0.8-5.7c0-0.6,0-1.2,0-1.8c0-0.6,0-1.2,0-1.8c0-0.3,0-0.5,0-0.8c0-0.9,0-1.7,0-2.6c0-2.1,0.1-4.2,0.3-6.1
				c0.1-1.7,0.2-3.2,0.4-4.6c0.1-1.6,0.4-3.2,0.8-4.4C152.6,65.6,152.9,64.6,153.3,64.8z"/>
			<path opacity="0.7692" fill="#466DA0" d="M153.3,65c0.1,0,0.2,0.3,0.4,0.8c0.2,0.6,0.5,1.5,0.7,2.6c0.1,0.3,0.1,0.6,0.2,0.9
				c0.4,2.4,0.7,5.4,0.8,8.8c0.1,2.1,0.1,4.2,0.1,6.5c0,1.2,0,2.3,0,3.5c0,0.5,0,1,0,1.6c0,0.5,0,1.1,0.1,1.7
				c0.1,1.1,0.1,2.3,0.1,3.4c0,1.2,0,2.4-0.1,3.6c-0.1,1.3,0.5,3,0.1,4.2c-0.5,1.5,0.1,4.9-1.1,5.9c-1.3,0.9-5.3,0.4-7.2,0.7
				c-1.2,0.1-4.1,0.1-7.3,0c-7.4-0.2-17.3-0.6-19.9-0.7c-3.4-0.4-23.9,0.8-25.2-0.6c-0.8-0.8,15.2-2.2,24.1-3.2
				c6.4-0.7,12.1-1.3,14.1-1.4c1.7,0,3.4,0,5.1-0.1c0.7,0,1.4,0,2.1-0.1c2.2-0.1,4.5-0.6,6.3-1.8c1.7-1,2.8-2.8,3.4-4.9
				c0.1-0.4,0.3-0.8,0.4-1.2c0.5-1.9,0.7-3.7,0.7-5.6c0-0.6,0-1.2,0-1.8c0-0.6,0-1.2,0-1.8c0-0.3,0-0.5,0-0.8c0-0.9,0-1.7,0-2.6
				c0.1-2.1,0.2-4.2,0.3-6.1c0.1-1.6,0.2-3.2,0.3-4.6c0.1-1.6,0.4-3.2,0.7-4.4C152.7,65.9,153,64.8,153.3,65z"/>
			<path opacity="0.8077" fill="#3F699C" d="M153.4,65.3c0.1,0,0.2,0.3,0.3,0.8c0.2,0.6,0.4,1.5,0.6,2.6c0.1,0.3,0.1,0.6,0.1,0.9
				c0.4,2.4,0.7,5.3,0.8,8.7c0.1,2,0.1,4.2,0.1,6.4c0,1.1,0,2.3,0,3.5c0,0.5,0,1,0,1.6c0,0.5,0,1.1,0.1,1.7c0,1.1,0.1,2.3,0.1,3.4
				c0,1.2,0,2.4-0.1,3.6c-0.1,1.3,0.6,3,0.1,4.2c-0.5,1.5,0.2,5-1.1,5.9c-1.3,0.9-5.2,0.3-7.1,0.7c-1,0.1-3.9,0.1-7.2,0
				c-7.3-0.2-17.2-0.6-19.5-0.7c-3.4-0.4-23.5,0.8-25-0.5c-0.9-0.7,14.7-2.1,23.9-3c6.5-0.6,12.2-1.2,14-1.3c1.7,0,3.4,0,5,0
				c0.7,0,1.4,0,2.1-0.1c2.2-0.2,4.5-0.7,6.2-1.8c1.6-1,2.7-2.9,3.3-5c0.1-0.4,0.2-0.8,0.3-1.2c0.4-1.8,0.6-3.7,0.6-5.6
				c0-0.6,0-1.2,0-1.8c0-0.6,0-1.2,0-1.8c0-0.3,0-0.5,0-0.8c0-0.9,0-1.7,0.1-2.5c0.1-2.1,0.2-4.1,0.3-6c0.1-1.6,0.2-3.2,0.3-4.6
				c0.1-1.6,0.3-3.2,0.6-4.3C152.8,66.2,153.1,65.1,153.4,65.3z"/>
			<path opacity="0.8462" fill="#386499" d="M153.4,65.5c0.1,0,0.2,0.3,0.3,0.8c0.2,0.6,0.4,1.4,0.6,2.5c0,0.3,0.1,0.5,0.1,0.8
				c0.4,2.3,0.6,5.2,0.8,8.5c0.1,2,0.1,4.1,0.1,6.3c0,1.1,0,2.2,0,3.4c0,0.5,0,1,0,1.6c0,0.5,0,1.1,0.1,1.7c0,1.1,0.1,2.3,0.1,3.4
				c0,1.2,0,2.4-0.2,3.6c-0.1,1.3,0.6,3,0.2,4.2c-0.5,1.4,0.2,5-1,5.9c-1.2,0.9-5.2,0.3-6.9,0.7c-0.9,0.1-3.7,0.1-7,0
				c-7.2-0.2-17.1-0.6-19.1-0.7c-3.5-0.4-23.1,0.7-24.7-0.3c-1-0.6,14.2-1.9,23.7-2.9c6.5-0.6,12.3-1.2,13.9-1.2c1.6,0,3.3,0,5,0
				c0.7,0,1.4,0,2.1-0.1c2.2-0.2,4.4-0.7,6.1-1.9c1.6-1.1,2.5-3,3.1-5.1c0.1-0.4,0.2-0.8,0.3-1.2c0.4-1.8,0.5-3.7,0.5-5.6
				c0-0.6,0-1.2,0-1.7c0-0.6,0-1.2,0-1.7c0-0.3,0-0.5,0-0.8c0-0.8,0.1-1.7,0.1-2.5c0.1-2.1,0.2-4.1,0.3-6c0.1-1.6,0.2-3.1,0.3-4.5
				c0.1-1.6,0.3-3.2,0.5-4.3C152.9,66.5,153.2,65.4,153.4,65.5z"/>
			<path opacity="0.8846" fill="#306095" d="M153.4,65.8c0,0,0.1,0.3,0.3,0.8c0.2,0.6,0.4,1.4,0.5,2.5c0,0.3,0.1,0.5,0.1,0.8
				c0.3,2.2,0.6,5.1,0.7,8.4c0.1,1.9,0.1,4,0.1,6.2c0,1.1,0,2.2,0,3.3c0,0.5,0,1,0,1.6c0,0.5,0,1.1,0.1,1.7c0,1.1,0.1,2.3,0.1,3.4
				c0,1.2,0,2.4-0.2,3.6c-0.1,1.3,0.6,3,0.2,4.3c-0.5,1.4,0.3,5-0.9,6c-1.2,0.9-5.1,0.2-6.7,0.6c-0.8,0.1-3.5,0.1-6.8,0
				c-7.1-0.2-17-0.6-18.6-0.7c-3.5-0.4-22.7,0.7-24.5-0.2c-1.1-0.5,13.6-1.8,23.5-2.7c6.6-0.6,12.3-1.1,13.7-1.1c1.6,0,3.3,0.1,5,0
				c0.7,0,1.4,0,2-0.1c2.2-0.2,4.4-0.7,6.1-2c1.5-1.1,2.4-3.1,2.9-5.2c0.1-0.4,0.2-0.8,0.3-1.2c0.3-1.8,0.4-3.7,0.4-5.6
				c0-0.6,0-1.2,0-1.7c0-0.6,0-1.2,0-1.7c0-0.3,0-0.5,0-0.8c0-0.8,0.1-1.7,0.1-2.5c0.1-2.1,0.2-4.1,0.3-5.9c0.1-1.6,0.2-3.1,0.3-4.5
				c0.1-1.6,0.2-3.1,0.4-4.3C153.1,66.8,153.2,65.7,153.4,65.8z"/>
			<path opacity="0.9231" fill="#285C92" d="M153.4,66c0,0,0.1,0.3,0.2,0.8c0.1,0.6,0.3,1.4,0.5,2.5c0,0.3,0.1,0.5,0.1,0.8
				c0.3,2.2,0.6,5,0.7,8.2c0.1,1.9,0.1,3.9,0.1,6c0,1.1,0,2.2,0,3.3c0,0.5,0,1,0,1.6c0,0.5,0,1.1,0.1,1.7c0,1.1,0.1,2.3,0.1,3.5
				c0,1.2,0,2.4-0.2,3.6c-0.1,1.3,0.7,3,0.2,4.3c-0.5,1.4,0.4,5-0.8,6c-1.1,0.9-5.1,0.2-6.6,0.6c-0.7,0.1-3.4,0.1-6.7,0
				c-7-0.2-16.9-0.7-18.2-0.7c-3.5-0.4-22.4,0.7-24.2,0c-1.1-0.4,13.1-1.7,23.4-2.5c6.6-0.6,12.4-1,13.6-1c1.6,0,3.3,0.1,4.9,0
				c0.7,0,1.4,0,2-0.1c2.2-0.2,4.4-0.8,6-2c1.5-1.1,2.3-3.2,2.7-5.3c0.1-0.4,0.2-0.8,0.2-1.2c0.3-1.8,0.3-3.7,0.3-5.5
				c0-0.6,0-1.1,0-1.7c0-0.6,0-1.2,0-1.7c0-0.3,0-0.5,0-0.8c0-0.8,0.1-1.7,0.1-2.5c0.1-2.1,0.2-4,0.3-5.9c0.1-1.6,0.2-3.1,0.2-4.4
				c0.1-1.6,0.2-3.1,0.3-4.3C153.2,67.1,153.3,66,153.4,66z"/>
			<path opacity="0.9615" fill="#1E598F" d="M153.4,66.3c0,0,0.1,0.3,0.2,0.8c0.1,0.6,0.3,1.4,0.4,2.4c0,0.2,0.1,0.5,0.1,0.8
				c0.3,2.1,0.5,4.8,0.7,8.1c0.1,1.8,0.1,3.8,0.1,5.9c0,1,0,2.1,0,3.2c0,0.5,0,1,0,1.6c0,0.5,0,1.1,0.1,1.7c0,1.1,0.1,2.3,0.1,3.5
				c0,1.2,0,2.4-0.2,3.6c-0.1,1.2,0.7,3,0.2,4.3c-0.5,1.3,0.4,5.1-0.7,6c-1.1,0.9-5,0.2-6.4,0.6c-0.5,0.1-3.2,0.1-6.5,0
				c-6.9-0.2-16.8-0.7-17.8-0.7c-3.6-0.4-22,0.6-23.9,0.1c-1.2-0.3,12.6-1.5,23.2-2.4c6.7-0.5,12.5-1,13.5-1
				c1.6,0.1,3.2,0.1,4.9,0.1c0.7,0,1.3,0,2-0.1c2.2-0.2,4.3-0.8,5.9-2.1c1.4-1.2,2.2-3.3,2.5-5.4c0.1-0.4,0.1-0.8,0.2-1.2
				c0.2-1.8,0.2-3.7,0.3-5.5c0-0.6,0-1.1,0-1.7c0-0.6,0-1.2,0.1-1.7c0-0.2,0-0.5,0-0.7c0.1-0.8,0.1-1.6,0.2-2.4
				c0.1-2.1,0.3-4,0.4-5.8c0.1-1.6,0.2-3.1,0.2-4.4c0.1-1.7,0.1-3.1,0.2-4.3C153.3,67.4,153.4,66.2,153.4,66.3z"/>
			<path fill="#12558C" d="M153.5,66.5c0,0,0.1,0.3,0.1,0.9c0.1,0.6,0.2,1.4,0.4,2.4c0.3,2.1,0.6,5.1,0.7,8.7
				c0.1,1.8,0.1,3.8,0.1,5.8c0,1,0,2.1,0,3.2c0,0.6,0,1.1,0,1.6c0,0.5,0,1.1,0.1,1.7c0,1.1,0.1,2.3,0.1,3.5c0,1.2,0,2.4-0.2,3.6
				c-0.1,1.2,0.7,3,0.2,4.3c-0.5,1.3,0.5,5.1-0.6,6.1c-1,0.9-5,0.1-6.3,0.5c-1.3,0.4-22.8-0.6-23.7-0.7c-3.6-0.5-21.6,0.6-23.7,0.3
				c-2.1-0.3,34.1-3.2,36.3-3.1c2.2,0.1,4.6,0.1,6.8,0c2.2-0.2,4.3-0.8,5.8-2.2c1.4-1.2,2.1-3.3,2.4-5.5c0.3-2.2,0.3-4.5,0.3-6.7
				c0-0.6,0-1.1,0-1.7c0-0.6,0-1.2,0.1-1.7c0.1-1.1,0.2-2.1,0.2-3.2c0.1-2,0.3-4,0.4-5.8c0.2-3.6,0.3-6.6,0.3-8.6
				C153.4,67.7,153.5,66.5,153.5,66.5z"/>
		</g>
		<g opacity="0.5">
			<path opacity="0" fill="#FFFFFF" d="M156.1,49.1c2-8.2,1.6-16.9,1.8-25.2c0.2-5.6,1.6-17.5-2.8-19.4c-4.5-1.9-14.5-1.1-20.9-1
				c-9.5,0.1-19,0.4-28.5,0.5c-2.7,0-33.3-1.8-32,3.1c0.7,2.8,27.4,6.1,29.7,6.8c7.3,2.2,14.9,3.2,22.5,3.7c6.2,0.4,14-0.9,18.5,4.4
				c3,3.5,2.6,7.2,1.8,11.3c-0.9,4.9-0.6,10.8,0.5,15.6c0.6,2.4,3,7.1,6.3,5.4C154.5,53.4,155.5,51.5,156.1,49.1z"/>
			<path opacity="3.846154e-02" fill="#EDEFF6" d="M74.7,7c0.6,2.7,26.8,5.9,29.5,6.6c5.1,1.4,10.3,2.4,15.4,2.9
				c2.3,0.3,4.6,0.4,6.9,0.6c0.5,0,1.1,0.1,1.6,0.1c2.6,0.1,5.3,0,7.9,0.3c2.6,0.3,5.1,1,7.1,2.6c0.5,0.4,1.1,0.9,1.5,1.5
				c1.5,1.9,2.1,3.8,2.2,5.8c0,0.7,0,1.4,0,2.1c-0.1,0.7-0.1,1.4-0.2,2.1c-0.1,0.4-0.1,0.8-0.2,1.3c-0.1,0.9-0.3,1.7-0.3,2.7
				c-0.2,2.4-0.2,4.8,0,7.3c0.2,1.9,0.5,3.8,0.9,5.6c0.3,1.3,1.2,3.3,2.4,4.6c1,1.1,2.2,1.6,3.7,0.9c0.4-0.2,0.7-0.4,1-0.7
				c0.7-0.7,1.3-1.8,1.7-3.1c0.1-0.4,0.2-0.8,0.3-1.2c0.9-3.8,1.3-7.7,1.5-11.6c0.1-2.9,0.2-5.8,0.2-8.6c0-1.6,0-3.1,0.1-4.7
				c0-0.5,0-1,0.1-1.5c0-0.5,0.1-1.1,0.1-1.6c0.1-1.1,0.1-2.2,0.2-3.4c0-1.2,0.1-2.4,0-3.6c0-1.5-0.1-2.9-0.3-4.2
				c-0.4-2.4-1.2-4.5-2.7-5.2c-2.3-1-6.2-1.2-10.2-1.2c-3.5,0-7.3,0.2-10.3,0.2c-9.4,0.1-18.9,0.4-28.1,0.5C103.7,4,73.6,2.2,74.7,7
				z"/>
			<path opacity="7.692308e-02" fill="#E1E5EF" d="M75.8,6.9c0.5,2.6,26.3,5.7,29.3,6.4c5.2,1.3,10.3,2.3,15.2,2.9
				c2.3,0.2,4.6,0.4,6.9,0.6c0.5,0,1.1,0.1,1.6,0.1c2.5,0.1,5.3,0,7.8,0.4c2.6,0.4,5,1.1,6.9,2.8c0.5,0.4,1,0.9,1.5,1.5
				c1.5,1.9,2,3.8,2.2,5.7c0,0.7,0,1.4,0,2.1c0,0.7-0.1,1.4-0.2,2.1c-0.1,0.4-0.1,0.8-0.2,1.3c-0.1,0.9-0.2,1.7-0.3,2.6
				c-0.2,2.4-0.2,4.8,0,7.2c0.2,1.9,0.5,3.8,0.8,5.5c0.3,1.4,1.1,3.3,2.3,4.6c1,1.1,2.2,1.7,3.5,1c0.3-0.2,0.7-0.4,1-0.7
				c0.7-0.7,1.3-1.8,1.7-3.1c0.1-0.4,0.2-0.8,0.3-1.2c0.9-3.7,1.3-7.6,1.5-11.5c0.1-2.8,0.2-5.7,0.2-8.5c0-1.5,0-3.1,0.1-4.6
				c0-0.5,0-1,0.1-1.5c0-0.5,0.1-1.1,0.1-1.6c0.1-1.1,0.1-2.2,0.2-3.4c0-1.2,0.1-2.4,0-3.6c0-1.5-0.1-2.9-0.3-4.2
				c-0.4-2.4-1.1-4.5-2.7-5.2c-2.3-1-6.2-1.2-10.1-1.2c-3.4,0-7.2,0.2-10.2,0.2C125.5,3.6,116,4,107.2,4.1
				C104.4,4.1,74.8,2.4,75.8,6.9z"/>
			<path opacity="0.1154" fill="#D5DBEA" d="M76.8,6.9c0.5,2.5,25.7,5.5,29.1,6.3c5.2,1.3,10.4,2.3,15.1,2.8
				c2.3,0.2,4.5,0.4,6.8,0.5c0.5,0,1.1,0.1,1.6,0.1c2.5,0.1,5.2,0.1,7.8,0.5c2.5,0.4,4.8,1.2,6.7,2.9c0.5,0.4,1,1,1.4,1.5
				c1.4,1.9,2,3.7,2.1,5.7c0,0.7,0,1.4,0,2.1c0,0.7-0.1,1.4-0.2,2c-0.1,0.4-0.1,0.8-0.2,1.3c-0.1,0.8-0.2,1.7-0.3,2.6
				c-0.2,2.3-0.2,4.8,0,7.1c0.2,1.9,0.4,3.8,0.8,5.5c0.3,1.4,1.1,3.3,2.2,4.6c0.9,1.2,2.1,1.8,3.4,1.1c0.3-0.2,0.6-0.4,0.9-0.8
				c0.7-0.7,1.2-1.8,1.6-3.1c0.1-0.4,0.2-0.7,0.3-1.1c0.9-3.6,1.3-7.4,1.4-11.3c0.1-2.8,0.2-5.6,0.2-8.4c0-1.5,0-3,0.1-4.5
				c0-0.5,0-1,0.1-1.6c0-0.5,0.1-1.1,0.1-1.6c0.1-1.1,0.1-2.2,0.2-3.4c0-1.2,0.1-2.4,0-3.6c0-1.4,0-2.9-0.3-4.2
				c-0.4-2.3-1-4.5-2.6-5.2c-2.2-1-6.1-1.1-9.9-1.2c-3.3,0-7,0.2-10,0.2c-9.2,0.1-18.8,0.4-27.3,0.5C105.1,4.2,76,2.5,76.8,6.9z"/>
			<path opacity="0.1538" fill="#CAD2E5" d="M77.9,6.8c0.4,2.4,25.1,5.3,28.8,6.1c5.3,1.2,10.5,2.2,15,2.7c2.2,0.2,4.5,0.4,6.7,0.5
				c0.5,0,1,0.1,1.6,0.1c2.5,0.1,5.2,0.1,7.7,0.6c2.5,0.4,4.7,1.3,6.5,3c0.5,0.5,0.9,1,1.4,1.5c1.3,1.8,1.9,3.7,2,5.7
				c0,0.7,0,1.4,0,2.1c0,0.7-0.1,1.3-0.2,2c-0.1,0.4-0.1,0.8-0.2,1.3c-0.1,0.8-0.2,1.7-0.3,2.6c-0.2,2.3-0.2,4.7,0,7.1
				c0.2,1.9,0.4,3.7,0.8,5.4c0.3,1.4,1,3.3,2.1,4.5c0.9,1.2,2,1.8,3.2,1.2c0.3-0.2,0.6-0.4,0.9-0.8c0.7-0.7,1.2-1.8,1.6-3.1
				c0.1-0.4,0.2-0.7,0.3-1.1c0.8-3.6,1.2-7.3,1.4-11.2c0.1-2.7,0.2-5.5,0.2-8.3c0-1.5,0-3,0.1-4.5c0-0.5,0-1,0.1-1.6
				c0-0.5,0.1-1.1,0.1-1.6c0.1-1.1,0.1-2.2,0.2-3.4c0-1.2,0-2.4,0-3.6c0-1.4,0-2.9-0.2-4.2c-0.4-2.3-1-4.5-2.5-5.3
				c-2.2-1-6.1-1.1-9.8-1.1c-3.2,0-6.8,0.1-9.9,0.2c-9.1,0.1-18.7,0.4-26.8,0.5C105.8,4.3,77.1,2.6,77.9,6.8z"/>
			<path opacity="0.1923" fill="#C0CAE0" d="M78.9,6.8c0.3,2.3,24.6,5.1,28.6,5.9c5.3,1.1,10.5,2.1,14.9,2.6
				c2.2,0.2,4.5,0.4,6.7,0.5c0.5,0,1,0.1,1.6,0.1c2.5,0.1,5.1,0.1,7.6,0.6c2.4,0.5,4.6,1.4,6.3,3.1c0.5,0.5,0.9,1,1.3,1.5
				c1.3,1.8,1.8,3.7,1.9,5.6c0,0.7,0,1.3,0,2c0,0.7-0.1,1.3-0.2,2c0,0.4-0.1,0.8-0.2,1.2c-0.1,0.8-0.2,1.7-0.3,2.6
				c-0.2,2.3-0.1,4.7,0.1,7c0.2,1.9,0.4,3.7,0.8,5.4c0.3,1.4,1,3.3,2,4.5c0.8,1.2,1.9,1.9,3.1,1.3c0.3-0.1,0.6-0.4,0.9-0.8
				c0.6-0.7,1.1-1.8,1.5-3c0.1-0.4,0.2-0.7,0.3-1.1c0.8-3.5,1.2-7.2,1.4-11c0.1-2.7,0.2-5.4,0.2-8.2c0-1.5,0-2.9,0.1-4.4
				c0-0.5,0-1,0.1-1.6c0-0.5,0.1-1.1,0.1-1.6c0.1-1.1,0.1-2.2,0.1-3.4c0-1.2,0-2.4,0-3.6c0-1.4,0-2.9-0.2-4.2
				c-0.4-2.3-0.9-4.6-2.4-5.3c-2.1-1-6-1-9.6-1.1c-3,0-6.6,0.1-9.7,0.2c-9,0.1-18.6,0.4-26.4,0.6C106.5,4.4,78.3,2.8,78.9,6.8z"/>
			<path opacity="0.2308" fill="#B6C2DB" d="M79.9,6.7c0.2,2.2,24,4.9,28.4,5.7c5.4,1.1,10.6,2.1,14.8,2.5c2.2,0.2,4.4,0.3,6.6,0.5
				c0.5,0,1,0.1,1.6,0.1c2.5,0.1,5.1,0.2,7.5,0.7c2.4,0.5,4.5,1.5,6.1,3.2c0.5,0.5,0.9,1,1.3,1.6c1.2,1.8,1.7,3.7,1.8,5.6
				c0,0.7,0,1.3,0,2c0,0.7-0.1,1.3-0.2,2c0,0.4-0.1,0.8-0.2,1.2c-0.1,0.8-0.2,1.7-0.2,2.5c-0.1,2.3-0.1,4.7,0.1,7
				c0.1,1.9,0.4,3.7,0.7,5.4c0.3,1.4,0.9,3.3,1.9,4.5c0.8,1.3,1.8,2,2.9,1.4c0.3-0.1,0.6-0.4,0.8-0.8c0.6-0.7,1.1-1.7,1.4-3
				c0.1-0.3,0.2-0.7,0.3-1.1c0.8-3.4,1.2-7.1,1.3-10.9c0.1-2.7,0.2-5.4,0.2-8.1c0-1.5,0-2.9,0.1-4.4c0-0.5,0-1,0.1-1.6
				c0-0.5,0.1-1.1,0.1-1.6c0.1-1.1,0.1-2.2,0.1-3.4c0-1.2,0-2.4,0-3.6c-0.1-1.4,0.1-2.9-0.2-4.2c-0.4-2.2-0.8-4.6-2.3-5.3
				c-2.1-1-6-1-9.4-1.1c-2.9,0-6.5,0.1-9.5,0.2c-8.9,0.1-18.5,0.5-26,0.6C107.2,4.6,79.5,2.9,79.9,6.7z"/>
			<path opacity="0.2692" fill="#ACBAD6" d="M81,6.7c0.2,2.1,23.5,4.7,28.2,5.6c5.4,1,10.6,2,14.7,2.4c2.2,0.2,4.4,0.3,6.6,0.4
				c0.5,0,1,0,1.5,0.1c2.5,0.1,5.1,0.2,7.4,0.8c2.3,0.5,4.4,1.6,5.9,3.3c0.4,0.5,0.8,1,1.2,1.6c1.2,1.8,1.6,3.7,1.7,5.6
				c0,0.7,0,1.3,0,2c0,0.7-0.1,1.3-0.2,2c0,0.4-0.1,0.8-0.1,1.2c-0.1,0.8-0.2,1.7-0.2,2.5c-0.1,2.3-0.1,4.6,0.1,6.9
				c0.1,1.9,0.4,3.7,0.7,5.3c0.3,1.4,0.9,3.3,1.8,4.5c0.8,1.3,1.7,2,2.8,1.5c0.3-0.1,0.5-0.4,0.8-0.8c0.6-0.7,1-1.7,1.4-3
				c0.1-0.3,0.2-0.7,0.3-1.1c0.8-3.4,1.1-7,1.3-10.7c0.1-2.6,0.2-5.3,0.2-8c0-1.4,0-2.9,0.1-4.3c0-0.5,0-1,0.1-1.6
				c0-0.5,0.1-1.1,0.1-1.6c0.1-1.1,0.1-2.2,0.1-3.4c0-1.2,0-2.4,0-3.6c-0.1-1.4,0.1-2.9-0.2-4.2c-0.4-2.2-0.8-4.6-2.2-5.4
				c-2-1-5.9-0.9-9.3-1.1c-2.8,0-6.3,0.1-9.4,0.2c-8.8,0.1-18.4,0.5-25.5,0.6C107.8,4.7,80.6,3,81,6.7z"/>
			<path opacity="0.3077" fill="#A3B3D1" d="M82,6.7c0.1,2,22.9,4.5,27.9,5.4c5.5,1,10.7,1.9,14.5,2.3c2.2,0.2,4.3,0.3,6.5,0.4
				c0.5,0,1,0,1.5,0.1c2.4,0.1,5,0.2,7.3,0.9c2.3,0.6,4.2,1.7,5.8,3.5c0.4,0.5,0.8,1,1.2,1.6c1.1,1.8,1.6,3.7,1.7,5.6
				c0,0.7,0,1.3,0,2c0,0.6-0.1,1.3-0.2,2c0,0.4-0.1,0.8-0.1,1.2c-0.1,0.8-0.2,1.7-0.2,2.5c-0.1,2.3-0.1,4.6,0.1,6.8
				c0.1,1.8,0.4,3.6,0.7,5.3c0.3,1.4,0.9,3.2,1.7,4.5c0.7,1.4,1.6,2.1,2.6,1.6c0.3-0.1,0.5-0.4,0.8-0.8c0.6-0.7,1-1.7,1.3-2.9
				c0.1-0.3,0.2-0.7,0.3-1.1c0.7-3.3,1.1-6.9,1.3-10.6c0.1-2.6,0.2-5.2,0.2-7.9c0-1.4,0-2.8,0.1-4.2c0-0.5,0-1,0.1-1.6
				c0-0.5,0.1-1.1,0.1-1.6c0.1-1.1,0.1-2.2,0.1-3.4c0-1.2,0-2.4,0-3.6c-0.1-1.4,0.1-2.9-0.2-4.2c-0.4-2.1-0.7-4.6-2.1-5.4
				c-1.9-1-5.9-0.9-9.1-1c-2.7,0-6.1,0.1-9.2,0.1c-8.7,0.1-18.3,0.5-25.1,0.6C108.5,4.8,81.8,3.2,82,6.7z"/>
			<path opacity="0.3462" fill="#9AABCC" d="M83.1,6.6c0,1.9,22.4,4.3,27.7,5.2c5.5,1,10.7,1.9,14.4,2.3c2.1,0.1,4.3,0.3,6.5,0.4
				c0.5,0,1,0,1.5,0.1c2.4,0.1,5,0.3,7.2,0.9c2.2,0.6,4.1,1.8,5.6,3.6c0.4,0.5,0.8,1,1.1,1.6c1.1,1.8,1.5,3.6,1.6,5.5
				c0,0.7,0,1.3,0,2c0,0.6-0.1,1.3-0.1,1.9c0,0.4-0.1,0.8-0.1,1.2c-0.1,0.8-0.1,1.6-0.2,2.5c-0.1,2.3-0.1,4.6,0.1,6.8
				c0.1,1.8,0.4,3.6,0.7,5.2c0.2,1.4,0.8,3.2,1.7,4.5c0.7,1.4,1.5,2.2,2.5,1.7c0.2-0.1,0.5-0.4,0.7-0.8c0.5-0.7,1-1.7,1.3-2.9
				c0.1-0.3,0.2-0.7,0.3-1c0.7-3.2,1.1-6.7,1.2-10.4c0.1-2.5,0.2-5.1,0.2-7.7c0-1.4,0-2.8,0.1-4.2c0-0.5,0-1,0.1-1.6
				c0-0.5,0.1-1.1,0.1-1.6c0.1-1.1,0.1-2.2,0.1-3.4c0-1.2,0-2.4,0-3.6c-0.1-1.4,0.2-2.9-0.1-4.2c-0.4-2.1-0.6-4.7-2.1-5.4
				c-1.9-1-5.8-0.8-9-1c-2.5,0-5.9,0.1-9.1,0.1c-8.6,0.1-18.2,0.5-24.7,0.6C109.2,4.9,83,3.3,83.1,6.6z"/>
			<path opacity="0.3846" fill="#91A5C8" d="M84.1,6.6c-0.1,1.8,21.8,4.1,27.5,5c5.6,0.9,10.8,1.8,14.3,2.2c2.1,0.1,4.3,0.2,6.4,0.4
				c0.5,0,1,0,1.5,0.1c2.4,0.1,4.9,0.3,7.2,1c2.2,0.6,4,1.9,5.4,3.7c0.4,0.5,0.7,1,1,1.6c1,1.8,1.4,3.6,1.5,5.5c0,0.6,0,1.3,0,2
				c0,0.6-0.1,1.3-0.1,1.9c0,0.4-0.1,0.8-0.1,1.2c-0.1,0.8-0.1,1.6-0.2,2.5c-0.1,2.2,0,4.5,0.1,6.7c0.1,1.8,0.4,3.6,0.6,5.2
				c0.2,1.4,0.8,3.2,1.6,4.4c0.6,1.4,1.5,2.2,2.4,1.8c0.2-0.1,0.5-0.4,0.7-0.8c0.5-0.7,0.9-1.7,1.2-2.9c0.1-0.3,0.2-0.7,0.2-1
				c0.7-3.1,1-6.6,1.2-10.3c0.1-2.5,0.2-5,0.2-7.6c0-1.4,0-2.7,0-4.1c0-0.5,0-1,0.1-1.6c0-0.5,0.1-1.1,0.1-1.6
				c0.1-1.1,0.1-2.2,0.1-3.4c0-1.2,0-2.4,0-3.6c-0.1-1.4,0.2-2.9-0.1-4.2c-0.4-2-0.6-4.7-2-5.5c-1.8-1-5.8-0.8-8.8-1
				c-2.4-0.1-5.8,0.1-8.9,0.1c-8.5,0.1-18.1,0.5-24.2,0.6C109.9,5,84.2,3.4,84.1,6.6z"/>
			<path opacity="0.4231" fill="#899EC4" d="M85.1,6.5c-0.2,1.7,21.2,3.9,27.3,4.9c5.6,0.9,10.8,1.8,14.2,2.1
				c2.1,0.1,4.2,0.2,6.4,0.3c0.5,0,1,0,1.5,0.1c2.4,0.1,4.9,0.3,7.1,1.1c2.1,0.7,3.9,2,5.2,3.8c0.4,0.5,0.7,1,1,1.6
				c1,1.8,1.3,3.6,1.4,5.5c0,0.6,0,1.3,0,1.9c0,0.6-0.1,1.3-0.1,1.9c0,0.4-0.1,0.8-0.1,1.2c-0.1,0.8-0.1,1.6-0.1,2.4
				c-0.1,2.2,0,4.5,0.1,6.7c0.1,1.8,0.4,3.5,0.6,5.1c0.2,1.4,0.7,3.2,1.5,4.4c0.6,1.5,1.4,2.3,2.2,1.9c0.2-0.1,0.4-0.4,0.7-0.8
				c0.5-0.7,0.9-1.6,1.2-2.8c0.1-0.3,0.2-0.7,0.2-1c0.6-3.1,1-6.5,1.2-10.1c0.1-2.4,0.2-5,0.2-7.5c0-1.3,0-2.7,0-4.1
				c0-0.5,0-1,0.1-1.6c0-0.5,0.1-1.1,0.1-1.6c0.1-1.1,0.1-2.2,0.1-3.4c0-1.2,0-2.4-0.1-3.6c-0.1-1.4,0.2-2.9-0.1-4.2
				c-0.4-2-0.5-4.7-1.9-5.5c-1.8-1-5.7-0.8-8.6-0.9c-2.3-0.1-5.6,0.1-8.7,0.1c-8.4,0.1-18.1,0.5-23.8,0.6
				C110.6,5.1,85.3,3.6,85.1,6.5z"/>
			<path opacity="0.4615" fill="#8198BF" d="M86.2,6.5c-0.2,1.6,20.7,3.7,27.1,4.7c5.7,0.9,10.9,1.7,14.1,2c2.1,0.1,4.2,0.2,6.3,0.3
				c0.5,0,1,0,1.5,0.1c2.4,0.1,4.9,0.4,7,1.1c2.1,0.7,3.8,2.1,5,3.9c0.3,0.5,0.6,1,0.9,1.6c0.9,1.8,1.2,3.6,1.3,5.4
				c0,0.6,0,1.3,0,1.9c0,0.6-0.1,1.3-0.1,1.9c0,0.4-0.1,0.8-0.1,1.2c-0.1,0.8-0.1,1.6-0.1,2.4c-0.1,2.2,0,4.5,0.2,6.6
				c0.1,1.8,0.3,3.5,0.6,5.1c0.2,1.5,0.7,3.2,1.4,4.4c0.6,1.5,1.3,2.4,2.1,2c0.2-0.1,0.4-0.4,0.6-0.8c0.5-0.7,0.8-1.6,1.1-2.8
				c0.1-0.3,0.2-0.7,0.2-1c0.6-3,1-6.4,1.1-10c0.1-2.4,0.1-4.9,0.2-7.4c0-1.3,0-2.7,0-4c0-0.5,0-1,0.1-1.6c0-0.5,0.1-1.1,0.1-1.6
				c0.1-1.1,0.1-2.2,0.1-3.4c0-1.2,0-2.4-0.1-3.6c-0.1-1.4,0.3-2.9-0.1-4.2c-0.4-1.9-0.4-4.7-1.8-5.6c-1.7-1-5.7-0.7-8.5-0.9
				c-2.2-0.1-5.4,0-8.6,0.1c-8.3,0.1-18,0.5-23.4,0.6C111.3,5.2,86.5,3.7,86.2,6.5z"/>
			<path opacity="0.5" fill="#7992BB" d="M87.2,6.5C86.9,8,107.4,10,114.1,11c5.7,0.8,10.9,1.6,13.9,1.9c2.1,0.1,4.2,0.2,6.2,0.3
				c0.5,0,1,0,1.5,0.1c2.4,0.1,4.8,0.4,6.9,1.2c2,0.7,3.6,2.1,4.8,4c0.3,0.5,0.6,1,0.9,1.6c0.8,1.8,1.2,3.6,1.2,5.4
				c0,0.6,0,1.3,0,1.9c0,0.6-0.1,1.3-0.1,1.9c0,0.4,0,0.8-0.1,1.2c-0.1,0.8-0.1,1.6-0.1,2.4c0,2.2,0,4.4,0.2,6.5
				c0.1,1.8,0.3,3.5,0.5,5.1c0.2,1.5,0.6,3.2,1.3,4.4c0.5,1.6,1.2,2.4,1.9,2.1c0.2-0.1,0.4-0.4,0.6-0.8c0.4-0.7,0.8-1.6,1.1-2.8
				c0.1-0.3,0.2-0.6,0.2-1c0.6-2.9,0.9-6.3,1.1-9.8c0.1-2.4,0.1-4.8,0.2-7.3c0-1.3,0-2.6,0-3.9c0-0.5,0-1,0.1-1.6
				c0-0.5,0.1-1.1,0.1-1.6c0.1-1.1,0.1-2.2,0.1-3.4c0-1.2,0-2.4-0.1-3.6c-0.1-1.4,0.3-3,0-4.2c-0.4-1.9-0.4-4.8-1.7-5.6
				c-1.7-0.9-5.6-0.7-8.3-0.9c-2-0.1-5.3,0-8.4,0.1c-8.2,0.1-17.9,0.5-22.9,0.6C112,5.3,87.7,3.8,87.2,6.5z"/>
			<path opacity="0.5385" fill="#728CB7" d="M88.3,6.4c-0.4,1.4,19.6,3.4,26.6,4.4c5.7,0.8,11,1.6,13.8,1.8c2,0.1,4.1,0.2,6.2,0.2
				c0.5,0,1,0,1.5,0.1c2.3,0.1,4.8,0.4,6.8,1.3c2,0.8,3.5,2.2,4.6,4.1c0.3,0.5,0.6,1,0.8,1.6c0.8,1.8,1.1,3.6,1.2,5.4
				c0,0.6,0,1.3,0,1.9c0,0.6-0.1,1.3-0.1,1.9c0,0.4,0,0.8-0.1,1.2c0,0.8-0.1,1.6-0.1,2.4c0,2.2,0,4.4,0.2,6.5c0.1,1.8,0.3,3.5,0.5,5
				c0.2,1.5,0.6,3.2,1.2,4.4c0.5,1.6,1.1,2.5,1.8,2.2c0.2-0.1,0.4-0.4,0.6-0.8c0.4-0.6,0.7-1.6,1-2.8c0.1-0.3,0.1-0.6,0.2-1
				c0.6-2.9,0.9-6.1,1.1-9.7c0.1-2.3,0.1-4.7,0.2-7.2c0-1.3,0-2.6,0-3.9c0-0.5,0-1,0-1.6c0-0.5,0-1.1,0.1-1.6
				c0.1-1.1,0.1-2.2,0.1-3.4c0-1.2,0-2.4-0.1-3.6c-0.1-1.3,0.3-3,0-4.2c-0.4-1.8-0.3-4.8-1.6-5.6c-1.6-0.9-5.6-0.6-8.2-0.9
				c-1.9-0.1-5.1,0-8.3,0.1c-8.1,0.1-17.8,0.5-22.5,0.6C112.6,5.4,88.8,4,88.3,6.4z"/>
			<path opacity="0.5769" fill="#6A86B3" d="M89.3,6.4c-0.5,1.3,19,3.2,26.4,4.2c5.8,0.8,11,1.5,13.7,1.7c2,0.1,4.1,0.1,6.1,0.2
				c0.5,0,1,0,1.4,0.1c2.3,0.1,4.7,0.5,6.7,1.4c1.9,0.8,3.4,2.3,4.4,4.3c0.3,0.5,0.5,1,0.8,1.6c0.7,1.8,1,3.5,1.1,5.3
				c0,0.6,0,1.2,0,1.9c0,0.6,0,1.2-0.1,1.9c0,0.4,0,0.8,0,1.1c0,0.8-0.1,1.6-0.1,2.4c0,2.2,0.1,4.4,0.2,6.4c0.1,1.8,0.3,3.4,0.5,5
				c0.2,1.5,0.6,3.2,1.1,4.4c0.5,1.6,1,2.6,1.6,2.3c0.2-0.1,0.3-0.4,0.5-0.8c0.4-0.6,0.7-1.6,1-2.7c0.1-0.3,0.1-0.6,0.2-0.9
				c0.5-2.8,0.9-6,1-9.5c0.1-2.3,0.1-4.6,0.2-7.1c0-1.3,0-2.5,0-3.8c0-0.5,0-1,0-1.6c0-0.5,0-1.1,0.1-1.6c0.1-1.1,0.1-2.2,0.1-3.4
				c0-1.2,0-2.4-0.1-3.6c-0.1-1.3,0.4-3,0-4.2c-0.4-1.8-0.2-4.8-1.6-5.7c-1.6-0.9-5.5-0.6-8-0.8c-1.8-0.1-4.9,0-8.1,0.1
				c-8,0.1-17.7,0.6-22.1,0.6C113.3,5.5,90,4.1,89.3,6.4z"/>
			<path opacity="0.6154" fill="#6381AF" d="M90.4,6.3c-0.5,1.2,18.5,3,26.2,4c5.8,0.7,11.1,1.4,13.6,1.7c2,0.1,4.1,0.1,6.1,0.2
				c0.5,0,0.9,0,1.4,0.1c2.3,0.1,4.7,0.5,6.7,1.4c1.9,0.8,3.3,2.4,4.2,4.4c0.3,0.5,0.5,1.1,0.7,1.6c0.7,1.7,0.9,3.5,1,5.3
				c0,0.6,0,1.2,0,1.8c0,0.6,0,1.2-0.1,1.8c0,0.4,0,0.8,0,1.1c0,0.8,0,1.6,0,2.3c0,2.2,0.1,4.3,0.2,6.4c0.1,1.7,0.3,3.4,0.5,4.9
				c0.2,1.5,0.5,3.1,1,4.3c0.4,1.7,0.9,2.6,1.5,2.3c0.1-0.1,0.3-0.3,0.5-0.8c0.3-0.6,0.7-1.6,0.9-2.7c0.1-0.3,0.1-0.6,0.2-0.9
				c0.5-2.7,0.8-5.9,1-9.4c0.1-2.2,0.1-4.6,0.1-7c0-1.2,0-2.5,0-3.8c0-0.5,0-1,0-1.6c0-0.5,0-1.1,0.1-1.6c0.1-1.1,0.1-2.2,0.1-3.4
				c0-1.2,0-2.4-0.1-3.6c-0.1-1.3,0.4-3,0-4.2c-0.4-1.7-0.2-4.8-1.5-5.7c-1.5-0.9-5.5-0.5-7.8-0.8c-1.7-0.1-4.7,0-7.9,0.1
				c-7.9,0.1-17.6,0.6-21.6,0.7C114,5.6,91.2,4.3,90.4,6.3z"/>
			<path opacity="0.6538" fill="#5C7CAB" d="M91.4,6.3c-0.6,1.1,17.9,2.9,25.9,3.8c5.9,0.7,11.1,1.4,13.5,1.6c2,0,4,0.1,6,0.2
				c0.5,0,0.9,0,1.4,0.1c2.3,0.1,4.7,0.5,6.6,1.5c1.8,0.9,3.2,2.5,4.1,4.5c0.2,0.5,0.5,1.1,0.7,1.6c0.6,1.7,0.8,3.5,0.9,5.3
				c0,0.6,0,1.2,0,1.8c0,0.6,0,1.2,0,1.8c0,0.4,0,0.8,0,1.1c0,0.8,0,1.5,0,2.3c0,2.2,0.1,4.3,0.2,6.3c0.1,1.7,0.3,3.4,0.4,4.9
				c0.2,1.5,0.5,3.1,0.9,4.3c0.4,1.7,0.8,2.7,1.3,2.4c0.1-0.1,0.3-0.3,0.5-0.8c0.3-0.6,0.6-1.5,0.9-2.7c0.1-0.3,0.1-0.6,0.2-0.9
				c0.5-2.7,0.8-5.8,1-9.2c0.1-2.2,0.1-4.5,0.1-6.8c0-1.2,0-2.5,0-3.7c0-0.5,0-1,0-1.6c0-0.5,0-1.1,0.1-1.6c0.1-1.1,0.1-2.2,0.1-3.4
				c0-1.2,0-2.4-0.1-3.6c-0.1-1.3,0.4-3,0-4.2c-0.5-1.7-0.1-4.9-1.4-5.7c-1.5-0.9-5.4-0.5-7.7-0.8c-1.5-0.1-4.6,0-7.8,0.1
				c-7.8,0.2-17.5,0.6-21.2,0.7C114.7,5.7,92.3,4.4,91.4,6.3z"/>
			<path opacity="0.6923" fill="#5577A7" d="M92.4,6.3c-0.7,1,17.3,2.7,25.7,3.7c5.9,0.7,11.2,1.3,13.4,1.5c2,0,4,0.1,6,0.1
				c0.5,0,0.9,0,1.4,0.1c2.3,0.1,4.6,0.6,6.5,1.6c1.8,0.9,3,2.6,3.9,4.6c0.2,0.5,0.4,1.1,0.6,1.6c0.6,1.7,0.8,3.5,0.8,5.3
				c0,0.6,0,1.2,0,1.8c0,0.6,0,1.2,0,1.8c0,0.4,0,0.7,0,1.1c0,0.8,0,1.5,0,2.3c0,2.1,0.1,4.3,0.2,6.2c0.1,1.7,0.3,3.4,0.4,4.8
				c0.2,1.5,0.4,3.1,0.8,4.3c0.3,1.8,0.7,2.8,1.2,2.5c0.1-0.1,0.3-0.3,0.4-0.8c0.3-0.6,0.6-1.5,0.8-2.6c0.1-0.3,0.1-0.6,0.2-0.9
				c0.5-2.6,0.8-5.7,0.9-9.1c0.1-2.1,0.1-4.4,0.1-6.7c0-1.2,0-2.4,0-3.6c0-0.5,0-1,0-1.6c0-0.5,0-1.1,0.1-1.6
				c0.1-1.1,0.1-2.3,0.1-3.4c0-1.2,0-2.4-0.1-3.6c-0.1-1.3,0.5-3,0.1-4.2c-0.5-1.6,0-4.9-1.3-5.8c-1.4-0.9-5.4-0.5-7.5-0.8
				c-1.4-0.1-4.4,0-7.6,0C131.8,5,122,5.4,118.7,5.5C115.4,5.8,93.5,4.5,92.4,6.3z"/>
			<path opacity="0.7308" fill="#4E72A3" d="M93.5,6.2c-0.8,0.9,16.8,2.5,25.5,3.5c6,0.7,11.2,1.3,13.2,1.4c1.9,0,3.9,0,5.9,0.1
				c0.5,0,0.9,0,1.4,0.1c2.3,0.2,4.6,0.6,6.4,1.7c1.7,1,2.9,2.7,3.7,4.7c0.2,0.5,0.4,1.1,0.6,1.7c0.5,1.7,0.7,3.5,0.7,5.2
				c0,0.6,0,1.2,0,1.8c0,0.6,0,1.2,0,1.8c0,0.4,0,0.7,0,1.1c0,0.8,0,1.5,0,2.3c0,2.1,0.1,4.2,0.3,6.2c0.1,1.7,0.2,3.3,0.4,4.8
				c0.1,1.5,0.4,3.1,0.7,4.3c0.3,1.8,0.7,2.8,1.1,2.6c0.1,0,0.2-0.3,0.4-0.8c0.3-0.6,0.5-1.5,0.7-2.6c0.1-0.3,0.1-0.6,0.2-0.9
				c0.4-2.5,0.7-5.6,0.9-9c0.1-2.1,0.1-4.3,0.1-6.6c0-1.2,0-2.4,0-3.6c0-0.5,0-1,0-1.6c0-0.5,0-1.1,0.1-1.6c0.1-1.1,0.1-2.3,0.1-3.4
				c0-1.2,0-2.4-0.1-3.6c-0.1-1.3,0.5-3,0.1-4.2c-0.5-1.6,0-4.9-1.2-5.8c-1.4-0.9-5.3-0.4-7.4-0.7c-1.3-0.1-4.2,0-7.5,0
				c-7.5,0.2-17.3,0.6-20.3,0.7C116.1,5.9,94.7,4.7,93.5,6.2z"/>
			<path opacity="0.7692" fill="#466DA0" d="M94.5,6.2c-0.9,0.8,16.2,2.4,25.3,3.3c6,0.6,11.3,1.2,13.1,1.3c1.9,0,3.9,0,5.9,0.1
				c0.5,0,0.9,0,1.4,0.1c2.2,0.2,4.5,0.6,6.3,1.7c1.7,1,2.8,2.8,3.5,4.8c0.2,0.5,0.4,1.1,0.5,1.7c0.5,1.7,0.6,3.4,0.6,5.2
				c0,0.6,0,1.2,0,1.8c0,0.6,0,1.2,0,1.8c0,0.4,0,0.7,0,1.1c0,0.8,0,1.5,0,2.2c0,2.1,0.2,4.2,0.3,6.1c0.1,1.7,0.2,3.3,0.4,4.7
				c0.1,1.6,0.3,3.1,0.7,4.3c0.3,1.9,0.6,2.9,0.9,2.7c0.1,0,0.2-0.3,0.4-0.8c0.2-0.6,0.5-1.5,0.7-2.6c0.1-0.3,0.1-0.6,0.2-0.9
				c0.4-2.4,0.7-5.4,0.8-8.8c0.1-2.1,0.1-4.2,0.1-6.5c0-1.2,0-2.3,0-3.5c0-0.5,0-1,0-1.6c0-0.5,0-1.1,0.1-1.7
				c0.1-1.1,0.1-2.3,0.1-3.4c0-1.2,0-2.4-0.1-3.6c-0.1-1.3,0.5-3,0.1-4.2c-0.5-1.5,0.1-4.9-1.1-5.9c-1.3-0.9-5.3-0.4-7.2-0.7
				c-1.2-0.1-4.1-0.1-7.3,0c-7.4,0.2-17.3,0.6-19.9,0.7C116.7,6,95.8,4.8,94.5,6.2z"/>
			<path opacity="0.8077" fill="#3F699C" d="M95.6,6.1c-0.9,0.7,15.7,2.2,25,3.1c6.1,0.6,11.3,1.1,13,1.2c1.9,0,3.9,0,5.8,0.1
				c0.5,0,0.9,0,1.4,0.1c2.2,0.2,4.5,0.7,6.2,1.8c1.6,1,2.7,2.9,3.3,4.9c0.2,0.5,0.3,1.1,0.5,1.7c0.4,1.7,0.5,3.4,0.6,5.2
				c0,0.6,0,1.2,0,1.8c0,0.6,0,1.2,0,1.8c0,0.4,0,0.7,0,1.1c0,0.7,0,1.5,0.1,2.2c0.1,2.1,0.2,4.1,0.3,6.1c0.1,1.7,0.2,3.3,0.3,4.7
				c0.1,1.6,0.3,3.1,0.6,4.2c0.2,1.9,0.5,3,0.8,2.8c0.1,0,0.2-0.3,0.3-0.8c0.2-0.6,0.4-1.5,0.6-2.6c0.1-0.3,0.1-0.6,0.1-0.9
				c0.4-2.4,0.7-5.3,0.8-8.7c0.1-2,0.1-4.2,0.1-6.4c0-1.1,0-2.3,0-3.5c0-0.5,0-1,0-1.6c0-0.5,0-1.1,0.1-1.7c0-1.1,0.1-2.3,0.1-3.4
				c0-1.2,0-2.4-0.1-3.6c-0.1-1.3,0.6-3,0.1-4.2c-0.5-1.5,0.2-5-1.1-5.9c-1.3-0.9-5.2-0.3-7.1-0.7c-1-0.1-3.9-0.1-7.2,0
				c-7.3,0.2-17.2,0.6-19.5,0.7C117.4,6.1,97,4.9,95.6,6.1z"/>
			<path opacity="0.8462" fill="#386499" d="M96.6,6.1c-1,0.6,15.1,2.1,24.8,3c6.1,0.6,11.4,1.1,12.9,1.1c1.9,0,3.8,0,5.7,0
				c0.4,0,0.9,0,1.3,0.1c2.2,0.2,4.4,0.7,6.2,1.9c1.6,1.1,2.6,3,3.1,5.1c0.2,0.5,0.3,1.1,0.4,1.7c0.3,1.7,0.4,3.4,0.5,5.1
				c0,0.6,0,1.2,0,1.7c0,0.6,0,1.2,0,1.7c0,0.4,0,0.7,0,1.1c0,0.7,0,1.5,0.1,2.2c0.1,2.1,0.2,4.1,0.3,6c0.1,1.7,0.2,3.2,0.3,4.7
				c0.1,1.6,0.3,3.1,0.5,4.2c0.2,1.9,0.4,3,0.6,2.9c0.1,0,0.2-0.3,0.3-0.8c0.2-0.6,0.4-1.4,0.6-2.5c0-0.3,0.1-0.5,0.1-0.8
				c0.4-2.3,0.6-5.2,0.8-8.5c0.1-2,0.1-4.1,0.1-6.3c0-1.1,0-2.2,0-3.4c0-0.5,0-1,0-1.6c0-0.5,0-1.1,0.1-1.7c0-1.1,0.1-2.3,0.1-3.4
				c0-1.2,0-2.4-0.2-3.6c-0.1-1.3,0.6-3,0.2-4.2c-0.5-1.4,0.2-5-1-5.9c-1.2-0.9-5.2-0.3-6.9-0.7c-0.9-0.1-3.7-0.1-7,0
				c-7.2,0.2-17.1,0.6-19.1,0.7C118.1,6.2,98.2,5.1,96.6,6.1z"/>
			<path opacity="0.8846" fill="#306095" d="M97.6,6c-1.1,0.5,14.5,1.9,24.6,2.8c6.2,0.6,11.4,1,12.8,1c1.9,0,3.8-0.1,5.7,0
				c0.4,0,0.9,0,1.3,0.1c2.2,0.2,4.4,0.7,6.1,2c1.5,1.1,2.4,3.1,2.9,5.2c0.1,0.5,0.2,1.1,0.3,1.7c0.3,1.7,0.4,3.4,0.4,5.1
				c0,0.6,0,1.2,0,1.7c0,0.6,0,1.2,0,1.7c0,0.4,0,0.7,0,1.1c0,0.7,0.1,1.5,0.1,2.2c0.1,2.1,0.2,4.1,0.3,5.9c0.1,1.7,0.2,3.2,0.3,4.6
				c0.1,1.6,0.2,3.1,0.4,4.2c0.1,2,0.3,3.1,0.5,3c0,0,0.1-0.3,0.3-0.8c0.2-0.6,0.4-1.4,0.5-2.5c0-0.3,0.1-0.5,0.1-0.8
				c0.3-2.2,0.6-5.1,0.7-8.4c0.1-1.9,0.1-4,0.1-6.2c0-1.1,0-2.2,0-3.3c0-0.5,0-1,0-1.6c0-0.5,0-1.1,0.1-1.7c0-1.1,0.1-2.3,0.1-3.4
				c0-1.2,0-2.4-0.2-3.6c-0.1-1.3,0.6-3,0.2-4.3c-0.5-1.4,0.3-5-0.9-6c-1.2-0.9-5.1-0.2-6.7-0.6c-0.8-0.1-3.5-0.1-6.8,0
				c-7.1,0.2-17,0.6-18.6,0.7C118.8,6.3,99.4,5.2,97.6,6z"/>
			<path opacity="0.9231" fill="#285C92" d="M98.7,6c-1.2,0.4,14,1.7,24.4,2.6c6.2,0.5,11.5,1,12.7,1c1.9,0,3.8-0.1,5.6,0
				c0.4,0,0.9,0,1.3,0.1c2.2,0.2,4.4,0.8,6,2c1.5,1.1,2.3,3.2,2.7,5.3c0.1,0.6,0.2,1.1,0.3,1.7c0.2,1.7,0.3,3.4,0.3,5.1
				c0,0.6,0,1.1,0,1.7c0,0.6,0,1.2,0,1.7c0,0.4,0,0.7,0.1,1.1c0,0.7,0.1,1.5,0.1,2.2c0.1,2.1,0.2,4,0.3,5.9c0.1,1.7,0.2,3.2,0.3,4.6
				c0.1,1.6,0.2,3,0.3,4.2c0.1,2,0.2,3.2,0.3,3.1c0,0,0.1-0.3,0.2-0.8c0.1-0.6,0.3-1.4,0.5-2.5c0-0.3,0.1-0.5,0.1-0.8
				c0.3-2.2,0.6-5,0.7-8.2c0.1-1.9,0.1-3.9,0.1-6c0-1.1,0-2.2,0-3.3c0-0.5,0-1,0-1.6c0-0.5,0-1.1,0.1-1.7c0-1.1,0.1-2.3,0.1-3.5
				c0-1.2,0-2.4-0.2-3.6c-0.1-1.3,0.7-3,0.2-4.3c-0.5-1.4,0.4-5-0.8-6c-1.1-0.9-5.1-0.2-6.6-0.6c-0.7-0.1-3.4-0.1-6.7,0
				c-7,0.2-16.9,0.7-18.2,0.7C119.5,6.4,100.5,5.3,98.7,6z"/>
			<path opacity="0.9615" fill="#1E598F" d="M99.7,6c-1.3,0.3,13.4,1.6,24.1,2.5c6.3,0.5,11.5,0.9,12.5,0.9c1.8-0.1,3.7-0.1,5.6,0
				c0.4,0,0.9,0,1.3,0.1c2.2,0.2,4.3,0.8,5.9,2.1c1.4,1.2,2.2,3.2,2.6,5.4c0.1,0.6,0.2,1.1,0.2,1.7c0.2,1.7,0.2,3.4,0.2,5
				c0,0.6,0,1.1,0,1.7c0,0.6,0,1.2,0.1,1.7c0,0.4,0,0.7,0.1,1.1c0,0.7,0.1,1.4,0.1,2.1c0.1,2.1,0.2,4,0.3,5.8
				c0.1,1.6,0.2,3.2,0.2,4.5c0.1,1.6,0.1,3,0.2,4.2c0.1,2.1,0.1,3.2,0.2,3.2c0,0,0.1-0.3,0.2-0.8c0.1-0.6,0.3-1.4,0.4-2.4
				c0-0.2,0.1-0.5,0.1-0.8c0.3-2.1,0.5-4.8,0.7-8.1c0.1-1.8,0.1-3.8,0.1-5.9c0-1,0-2.1,0-3.2c0-0.5,0-1,0-1.6c0-0.5,0-1.1,0.1-1.7
				c0-1.1,0.1-2.3,0.1-3.5c0-1.2,0-2.4-0.2-3.6c-0.1-1.2,0.7-3,0.2-4.3c-0.5-1.3,0.4-5.1-0.7-6c-1.1-0.9-5-0.2-6.4-0.6
				c-0.5-0.1-3.2-0.1-6.5,0c-6.9,0.2-16.8,0.7-17.8,0.7C120.2,6.5,101.7,5.5,99.7,6z"/>
			<path fill="#12558C" d="M153.5,47.6c0,0,0.1-0.3,0.1-0.9c0.1-0.6,0.2-1.4,0.4-2.4c0.3-2.1,0.6-5.1,0.7-8.7
				c0.1-1.8,0.1-3.8,0.1-5.8c0-1,0-2.1,0-3.2c0-0.6,0-1.1,0-1.6c0-0.5,0-1.1,0.1-1.7c0-1.1,0.1-2.3,0.1-3.5c0-1.2,0-2.4-0.2-3.6
				c-0.1-1.2,0.7-3,0.2-4.3c-0.5-1.3,0.5-5.1-0.6-6.1c-1-0.9-5-0.1-6.3-0.5c-1.3-0.4-22.8,0.6-23.7,0.7c-3.6,0.5-21.6-0.6-23.7-0.3
				c-2.1,0.3,34.1,3.2,36.3,3.1c2.2-0.1,4.6-0.1,6.8,0c2.2,0.2,4.3,0.8,5.8,2.2c1.4,1.2,2.1,3.3,2.4,5.5c0.3,2.2,0.3,4.5,0.3,6.7
				c0,0.6,0,1.1,0,1.7c0,0.6,0,1.2,0.1,1.7c0.1,1.1,0.2,2.1,0.2,3.2c0.1,2,0.3,4,0.4,5.8c0.2,3.6,0.3,6.6,0.3,8.6
				C153.4,46.4,153.5,47.6,153.5,47.6z"/>
		</g>
		
			<path fill="none" stroke="#91CEF4" stroke-linecap="round" stroke-linejoin="round" stroke-miterlimit="50" stroke-dasharray="2.8346" d="
			M150.5,109.1H8.5c-2.6,0-4.8-2.1-4.8-4.8V10.9c0-2.6,2.1-4.8,4.8-4.8h142c2.6,0,4.8,2.1,4.8,4.8v93.4
			C155.3,107,153.2,109.1,150.5,109.1z"/>
		<g>
			<path fill="#175E9A" d="M153.7,47.1c-5.8,0.4-13.8,0.9-14.6,1c-4.7,0.4-7.8,1.7-10.1,5.2c-1.2,1.8-1.7,3.9-1.5,6.5
				c0,0.2,0,0.5,0,0.7c0.4,3,1.6,5.3,4.4,7.3c3,2.3,8.2,2.2,13,1.9c3.4-0.2,6.6-0.6,10-1.1c2.4-0.3,3.4-1.8,3.4-3.9
				c-0.1-4-0.1-8-0.1-11.9c0-1.6-0.1-3.3-0.1-4.9c-0.2,0-0.4,0-0.6,0C156.2,47.8,154.8,47.5,153.7,47.1z M128.3,56.2
				c0.3-0.7,0.7-1.3,1.2-2C129,54.9,128.6,55.5,128.3,56.2z"/>
			<path fill="#175E9A" d="M160.5,50c-0.1,4,0,8,0.1,11.9c0,2.1-1,3.6-3.4,3.9c-3.3,0.5-6.6,0.8-10,1.1c-4.8,0.4-9.9,0.4-13-1.9
				c-2.8-2.1-4-4.3-4.4-7.3c-0.4-3.1,1.4-6.5,4.3-8.4c4.1-2.6,9.4-2.4,14.4-2.7c2.1-0.1,4.9-0.4,7-0.6c1.2-0.1,3.3-0.2,4.2-1
				c0.4-0.4,0.6-0.7,0.6-1.2c0,0,0,0.1,0,0.1C160.4,46,160.5,48,160.5,50L160.5,50z"/>
			<linearGradient id="SVGID_3_" gradientUnits="userSpaceOnUse" x1="122.3755" y1="55.3182" x2="171.8852" y2="44.8264">
				<stop  offset="0" style="stop-color:#00ACEC"/>
				<stop  offset="1" style="stop-color:#91CEF4"/>
			</linearGradient>
			<path fill="url(#SVGID_3_)" d="M159.6,42c0.5,0.7,0.7,1.1,0.7,1.9c-0.1,0.4-0.3,0.8-0.6,1.2c-0.9,0.9-3.1,0.9-4.2,1
				c-2.2,0.2-4.8,0.4-7,0.6c-5.6,0.3-11.8,0.1-15.9,3.9c-3.1,2.9-3.3,6.3-2.1,9.8c-1.4-4.2-0.9-7.3,0.7-9.8
				c2.3-3.5,5.4-4.8,10.1-5.2c0.9-0.1,10-0.7,15.9-1c1.4-0.1,1.4-0.8,1.4-2c0-0.3,0-1,0-1.4c0,0,0.1,0,0.1,0c0,0,0,0,0,0
				c0,0,0,0,0.1,0.1C159.1,41.3,159.6,41.9,159.6,42L159.6,42z"/>
			<g>
				<g>
					<g>
						<path fill="#91CEF4" d="M158,47c-0.4,0.1-0.7,0.5-0.6,0.7c0.1,0.3,0.5,0.4,1,0.2l1-0.3c0.4-0.1,0.7-0.5,0.6-0.7
							c-0.1-0.3-0.5-0.4-1-0.2L158,47z"/>
					</g>
					<g>
						<path fill="#91CEF4" d="M154.3,47.5c-0.5,0-0.8,0.3-0.8,0.6c0,0.3,0.4,0.5,0.9,0.5l1-0.1c0.5,0,0.8-0.3,0.8-0.6
							c0-0.3-0.4-0.5-0.9-0.5L154.3,47.5z"/>
					</g>
					<g>
						<path fill="#91CEF4" d="M150.3,47.8c-0.5,0-0.8,0.3-0.8,0.6c0,0.3,0.4,0.5,0.9,0.5l1-0.1c0.5,0,0.8-0.3,0.8-0.6
							c0-0.3-0.4-0.5-0.9-0.5L150.3,47.8z"/>
					</g>
					<g>
						<path fill="#91CEF4" d="M146.4,48c-0.5,0-0.8,0.3-0.8,0.6c0,0.3,0.4,0.5,0.9,0.5l1-0.1c0.5,0,0.8-0.3,0.8-0.6
							c0-0.3-0.4-0.5-0.9-0.5L146.4,48z"/>
					</g>
					<g>
						<path fill="#91CEF4" d="M142.4,48.3c-0.5,0-0.8,0.3-0.8,0.6c0,0.3,0.4,0.5,0.9,0.5l1-0.1c0.5,0,0.8-0.3,0.8-0.6
							c0-0.3-0.4-0.5-0.9-0.5L142.4,48.3z"/>
					</g>
					<g>
						<path fill="#91CEF4" d="M138.4,48.5c-0.5,0-0.8,0.3-0.8,0.6c0,0.3,0.4,0.5,0.9,0.5l1-0.1c0.5,0,0.8-0.3,0.8-0.6
							c0-0.3-0.4-0.5-0.9-0.5L138.4,48.5z"/>
					</g>
				</g>
				<g>
					<g>
						<path fill="#91CEF4" d="M154.7,64.2c-0.4,0.1-0.8,0.4-0.7,0.6c0.1,0.3,0.5,0.4,0.9,0.4l1-0.2c0.4-0.1,0.8-0.4,0.7-0.6
							c-0.1-0.3-0.5-0.4-0.9-0.3L154.7,64.2z"/>
					</g>
					<g>
						<path fill="#91CEF4" d="M158,63.3c-0.4,0.2-0.6,0.6-0.4,0.8c0.1,0.2,0.6,0.3,1,0l0.9-0.5c0.4-0.2,0.6-0.6,0.4-0.8
							c-0.1-0.2-0.6-0.3-1,0L158,63.3z"/>
					</g>
					<g>
						<path fill="#91CEF4" d="M150.8,64.7c-0.5,0-0.8,0.3-0.8,0.6c0,0.3,0.4,0.5,0.9,0.4l1-0.1c0.5,0,0.8-0.3,0.8-0.6
							c0-0.3-0.4-0.5-0.9-0.4L150.8,64.7z"/>
					</g>
					<g>
						<path fill="#91CEF4" d="M146.8,65.1c-0.5,0-0.8,0.3-0.8,0.6c0,0.3,0.4,0.5,0.9,0.4l1-0.1c0.5,0,0.8-0.3,0.8-0.6
							c0-0.3-0.4-0.5-0.9-0.4L146.8,65.1z"/>
					</g>
					<g>
						<path fill="#91CEF4" d="M142.8,65.2c-0.5,0-0.8,0.2-0.8,0.5c0,0.3,0.4,0.5,0.8,0.5l1,0c0.5,0,0.8-0.2,0.8-0.5
							c0-0.3-0.4-0.5-0.8-0.5L142.8,65.2z"/>
					</g>
					<g>
						<path fill="#91CEF4" d="M138.9,64.9c-0.5-0.1-0.9,0.1-0.9,0.4c0,0.3,0.3,0.6,0.8,0.6l1,0.1c0.5,0.1,0.9-0.1,0.9-0.4
							c0-0.3-0.3-0.6-0.8-0.6L138.9,64.9z"/>
					</g>
					<g>
						<path fill="#91CEF4" d="M135.6,63.4c-0.4-0.2-0.8-0.2-1,0c-0.2,0.2,0,0.6,0.4,0.9l0.9,0.5c0.4,0.2,0.8,0.2,1,0
							c0.2-0.2,0-0.6-0.4-0.8L135.6,63.4z"/>
					</g>
					<g>
						<path fill="#91CEF4" d="M133.2,61c-0.3-0.3-0.7-0.5-0.9-0.3c-0.2,0.2-0.2,0.6,0.1,0.9l0.6,0.8c0.3,0.3,0.7,0.5,0.9,0.3
							c0.2-0.2,0.2-0.6-0.1-0.9L133.2,61z"/>
					</g>
					<g>
						<path fill="#91CEF4" d="M132,58.2c-0.1-0.4-0.4-0.7-0.7-0.7c-0.3,0.1-0.4,0.5-0.3,0.9l0.2,1c0.1,0.4,0.4,0.7,0.7,0.7
							c0.3-0.1,0.4-0.5,0.3-0.9L132,58.2z"/>
					</g>
					<g>
						<path fill="#91CEF4" d="M132.1,54.8c0.1-0.4-0.1-0.8-0.4-0.9c-0.3-0.1-0.6,0.3-0.7,0.7l-0.2,1c-0.1,0.4,0.1,0.8,0.4,0.9
							c0.3,0.1,0.6-0.3,0.7-0.7L132.1,54.8z"/>
					</g>
					<g>
						<path fill="#91CEF4" d="M133.6,52.1c0.3-0.3,0.4-0.8,0.1-0.9c-0.2-0.2-0.6-0.1-0.9,0.3l-0.7,0.7c-0.3,0.3-0.4,0.8-0.1,0.9
							c0.2,0.2,0.6,0.1,0.9-0.3L133.6,52.1z"/>
					</g>
					<g>
						<path fill="#91CEF4" d="M136.3,50.2c0.4-0.2,0.6-0.6,0.5-0.8c-0.1-0.3-0.6-0.3-1-0.1l-0.9,0.4c-0.4,0.2-0.6,0.6-0.5,0.8
							c0.1,0.3,0.6,0.3,1,0.1L136.3,50.2z"/>
					</g>
				</g>
			</g>
			<g>
				<path fill="#175E9A" d="M144.4,61.2c-1.9,2-5,2.2-7.1,0.4c-2.1-1.8-2.3-4.9-0.4-6.9c1.9-2,5.1-2.2,7.1-0.4
					C146.1,56.1,146.3,59.2,144.4,61.2z"/>
				
					<linearGradient id="SVGID_4_" gradientUnits="userSpaceOnUse" x1="260.6218" y1="403.2797" x2="260.6415" y2="413.6643" gradientTransform="matrix(0.7485 0.6632 -0.6632 0.7485 216.8081 -421.3104)">
					<stop  offset="0.4905" style="stop-color:#B4B4B4"/>
					<stop  offset="0.5953" style="stop-color:#B7B7B7"/>
					<stop  offset="0.6896" style="stop-color:#C0C0C0"/>
					<stop  offset="0.7797" style="stop-color:#D1D0D0"/>
					<stop  offset="0.8669" style="stop-color:#E9E9E8"/>
					<stop  offset="0.9143" style="stop-color:#FFFFFF"/>
					<stop  offset="1" style="stop-color:#F6F6F6"/>
				</linearGradient>
				<path fill="url(#SVGID_4_)" d="M144.8,60.2c-1.8,1.9-4.8,2.1-6.8,0.4c-2-1.7-2.2-4.6-0.4-6.6c1.8-1.9,4.8-2.1,6.8-0.4
					C146.4,55.3,146.5,58.3,144.8,60.2z"/>
				
					<linearGradient id="SVGID_5_" gradientUnits="userSpaceOnUse" x1="260.5999" y1="403.2009" x2="260.6591" y2="412.6986" gradientTransform="matrix(0.7485 0.6632 -0.6632 0.7485 216.8081 -421.3104)">
					<stop  offset="0" style="stop-color:#B4B4B4"/>
					<stop  offset="0.321" style="stop-color:#B7B7B7"/>
					<stop  offset="0.6093" style="stop-color:#C0C0C0"/>
					<stop  offset="0.8844" style="stop-color:#D1D0CF"/>
					<stop  offset="1" style="stop-color:#DAD9D9"/>
				</linearGradient>
				<path fill="url(#SVGID_5_)" d="M144.8,60.2c-1.8,1.9-4.4,1.6-6.4-0.1c-2-1.7-2.6-4.2-0.8-6.1c1.8-1.9,4.8-2.1,6.8-0.4
					C146.4,55.3,146.5,58.3,144.8,60.2z"/>
				
					<linearGradient id="SVGID_6_" gradientUnits="userSpaceOnUse" x1="260.699" y1="403.514" x2="260.7188" y2="409.3868" gradientTransform="matrix(0.7485 0.6632 -0.6632 0.7485 216.8081 -421.3104)">
					<stop  offset="0" style="stop-color:#FFFFFF"/>
					<stop  offset="0.3622" style="stop-color:#F9F8F8"/>
					<stop  offset="0.6872" style="stop-color:#ECECEB"/>
					<stop  offset="0.9976" style="stop-color:#DAD9D9"/>
					<stop  offset="1" style="stop-color:#DAD9D9"/>
				</linearGradient>
				<path fill="url(#SVGID_6_)" d="M145.3,58.8c-0.9,1-3,0.5-4.7-0.9c-1.7-1.5-2.4-3.5-1.5-4.4c0.9-1,3.5-1.1,5.2,0.4
					C146,55.3,146.1,57.8,145.3,58.8z"/>
			</g>
		</g>
	</g>
</g>
</svg>
