<?xml version="1.0" encoding="utf-8"?>
<!-- Generator: Adobe Illustrator 18.1.0, SVG Export Plug-In . SVG Version: 6.00 Build 0)  -->
<svg version="1.1" id="Слой_1" xmlns="http://www.w3.org/2000/svg" xmlns:xlink="http://www.w3.org/1999/xlink" x="0px" y="0px"
	 viewBox="0 0 229 77.8" enable-background="new 0 0 229 77.8" xml:space="preserve">
<g>
	<g>
		<path fill="#FFF343" d="M209.6,72.8c-2-0.1-3.8-1.6-3.8-3.7c0.2-3.3,2.4-8.5,5.5-8.8c3.5-0.4,8.4,0.7,8,4.2
			C219,69.3,214.2,73.1,209.6,72.8z M220.7,42.9c-0.2,2.8-2.9,7.1-6.2,7.1c-4.4,0-4.8-4.5-5-8.1c-0.1-4.2,8.1-41.9,16.6-41.9
			c3.2,0,2.8,4.5,2.8,6.8C229,10.5,222,33.1,220.7,42.9z"/>
	</g>
	<g>
		<g>
			<path fill="#FFFFFF" d="M27,60.6c0,1.5-0.2,2.8-0.6,4c-0.4,1.2-1.1,2.3-1.9,3.3c-0.8,0.9-1.9,1.7-3.1,2.2s-1.2,0.5-1.2,0.5
				c-1.7,0.2-4.5,0.3-6.2,0.3L3.3,71c-1.7,0-3.1-1.4-3.1-3L0,40c0-1.7,1.4-3.1,3.1-3.1l9.9-0.1c1.7,0,4.5,0.1,6.2,0.2
				c0,0,0.3,0,1.5,0.5c1.3,0.5,2.3,1.2,3.1,2c0.8,0.9,1.4,1.8,1.8,3c0.4,1.1,0.6,2.3,0.6,3.6c0,0.6-0.1,1.2-0.3,1.9
				c-0.2,0.7-0.4,1.3-0.8,1.9c-0.3,0.6-0.8,1.2-1.3,1.7c-0.5,0.5-0.5,0.5-0.5,0.5c-0.7,0.4-0.6,1.2,0.3,1.7c0,0,0,0,0.6,0.6
				c0.6,0.6,1.1,1.3,1.5,2c0.4,0.7,0.7,1.4,0.9,2.2C26.9,59.3,27,60,27,60.6z M18,47c0-1-0.3-1.7-0.9-2.3c-0.6-0.6-0.6-0.6-0.6-0.6
				c-1.4-0.2-3.9-0.3-5.5-0.3c-1.7,0-3,1.4-3,3.1L8,47c0,1.7,1.4,3,3,3c1.7,0,4.1-0.2,5.4-0.3c0,0,0,0,0.6-0.5
				C17.7,48.6,18,47.9,18,47z M18.4,60.4c0-1.1-0.3-1.9-0.9-2.7C16.8,57,16.8,57,16.8,57c-1.3-0.2-3.8-0.3-5.5-0.3l-0.2,0
				c-1.7,0-3.1,1.4-3.1,3.1l0,1.2c0,1.7,1.4,3,3.1,3l0.2,0c1.7,0,4.1-0.2,5.4-0.4c0,0,0,0,0.7-0.6C18.1,62.3,18.4,61.4,18.4,60.4z"
				/>
		</g>
		<g>
			<path fill="#FFFFFF" d="M54.4,50.4c-0.1,0-0.9,1.2-1.8,2.6l-9.7,15.1c-0.9,1.4-3,2.6-4.7,2.6l-0.9,0c-1.7,0-3.1-1.4-3.1-3
				l-0.2-28c0-1.7,1.4-3.1,3.1-3.1l1.8,0c1.7,0,3.1,1.4,3.1,3L41.9,54c0,1.7,0.1,3.1,0.1,3.1c0,0,0.8-1.2,1.7-2.6l9.8-15.4
				c0.9-1.4,3-2.6,4.7-2.6l1,0c1.7,0,3.1,1.4,3.1,3l0.2,28c0,1.7-1.4,3.1-3.1,3.1l-1.8,0c-1.7,0-3.1-1.4-3.1-3l-0.1-14
				C54.5,51.8,54.4,50.4,54.4,50.4z"/>
		</g>
		<g>
			<path fill="#FFFFFF" d="M74,70.4c-1.7,0-3.1-1.4-3.1-3l-0.2-28c0-1.7,1.4-3.1,3.1-3.1l17.9-0.1c1.7,0,3.1,1.4,3.1,3l0,0.9
				c0,1.7-1.4,3.1-3.1,3.1l-9.9,0.1c-1.7,0-3.1,1.4-3.1,3.1l0.2,21c0,1.7-1.4,3.1-3.1,3.1L74,70.4z"/>
		</g>
		<g>
			<path fill="#FFFFFF" d="M124.8,56.2c0,1.7-0.1,4.4-0.3,6.1c0,0,0,0.5-0.8,1.9s-1.7,2.6-2.9,3.5c-1.2,0.9-2.7,1.6-4.3,2.1
				c-1.6,0.5-3.3,0.7-5.1,0.7c-1.8,0-3.5-0.2-5.1-0.7c-1.6-0.4-3.1-1.1-4.3-2c-1.3-0.9-2.3-2.1-3-3.4c-0.7-1.4-0.8-1.9-0.8-1.9
				c-0.2-1.7-0.4-4.4-0.4-6.1l-0.1-6.7c0-1.7,0.1-4.4,0.3-6.1c0,0,0-0.5,0.8-1.8c0.8-1.4,1.8-2.5,3.1-3.4c1.3-0.9,2.7-1.6,4.3-2
				c1.6-0.4,3.2-0.7,4.8-0.7c1.6,0,3.3,0.2,4.9,0.7c1.6,0.5,3.1,1.1,4.4,2c1.3,0.9,2.3,2,3.1,3.4c0.8,1.4,0.8,1.9,0.8,1.9
				c0.2,1.7,0.4,4.4,0.4,6.1L124.8,56.2z M116.8,51.3c0-1.7-0.1-3.9-0.2-4.9c0,0,0,0-0.3-0.7c-0.3-0.7-0.8-1.2-1.3-1.6
				c-0.5-0.4-1.1-0.7-1.8-0.9c-0.7-0.2-1.3-0.3-2-0.3c-0.7,0-1.3,0.1-2,0.3c-0.6,0.2-1.2,0.5-1.8,0.9c-0.5,0.4-1,1-1.3,1.6
				c-0.3,0.7-0.3,0.7-0.3,0.7c-0.1,1-0.1,3.2-0.1,4.9l0,3.5c0,1.7,0.1,3.9,0.2,4.9c0,0,0,0,0.3,0.7c0.3,0.7,0.8,1.2,1.3,1.6
				c0.5,0.4,1.1,0.7,1.8,0.9c0.7,0.2,1.3,0.3,2,0.3c0.6,0,1.3-0.1,1.9-0.3c0.7-0.2,1.3-0.5,1.8-0.9c0.5-0.4,0.9-1,1.3-1.6
				c0.3-0.7,0.3-0.7,0.3-0.7c0.1-1,0.1-3.2,0.1-4.9L116.8,51.3z"/>
		</g>
		<g>
			<path fill="#FFFFFF" d="M157.3,35.7c1.7,0,3.1,1.4,3.1,3l0.2,21.1c0,1.7,0.7,3,1.6,3s1.6,1.4,1.6,3l0.1,8.6
				c0,1.7-1.4,3.1-3.1,3.1l-0.9,0c-1.7,0-3.1-1.4-3.1-3l0-1.7c0-1.7-1.4-3-3.1-3l-14.5,0.1c-1.7,0-3.1,1.4-3.1,3.1l0,1.7
				c0,1.7-1.4,3.1-3.1,3.1l-1,0c-1.7,0-3.1-1.4-3.1-3l-0.1-8.6c0-1.7,0.5-3.1,1.3-3.1c0.7,0,1.9-0.6,2.7-1.3c0,0,0,0,0.5-0.8
				c0.5-0.8,0.9-1.7,1.3-2.7c0.3-1,0.6-2.2,0.7-3.6c0.2-1.4,0.2-1.7,0.2-1.7c0.1-1.7,0.3-4.4,0.3-6.1l0.4-8.1
				c0.1-1.7,1.5-3.1,3.2-3.1L157.3,35.7z M152.6,45.7c0-1.7-1.4-3-3.1-3l-3,0c-1.7,0-3.2,1.4-3.2,3.1l-0.1,1.2
				c-0.1,1.7-0.2,4-0.3,5.2c0,0,0,0-0.1,1.1c-0.1,1.1-0.2,2.3-0.4,3.4c-0.2,1.1-0.5,2.2-0.8,3.3c-0.3,1.1-0.3,1.1-0.3,1.1
				c-0.6,1.1,0.3,1.9,2,1.9l6.2,0c1.7,0,3.1-1.4,3.1-3.1L152.6,45.7z"/>
		</g>
		<g>
			<path fill="#FFFFFF" d="M190.4,65.7c-0.5-1.6-2.3-2.9-4-2.9l-4.9,0c-1.7,0-3.5,1.3-4,3l-0.3,0.9c-0.5,1.6-2.3,2.9-4,3l-2.4,0
				c-1.7,0-2.6-1.3-2.1-2.9l9.9-28.4c0.6-1.6,2.4-2.9,4.1-2.9l2,0c1.7,0,3.6,1.3,4.1,2.9l10.2,28.3c0.6,1.6-0.4,2.9-2.1,2.9l-2.3,0
				c-1.7,0-3.5-1.3-4-2.9L190.4,65.7z M180.7,55.3c-0.2,0.6,1,1.2,2.7,1.1l0.9,0c1.7,0,2.9-0.5,2.7-1.2s-0.8-2.5-1.2-4.1l-1.1-3.5
				c-0.5-1.6-0.9-2.9-1-2.9c-0.1,0-0.5,1.3-0.9,2.9l-1,3.5C181.4,52.8,180.9,54.6,180.7,55.3z"/>
		</g>
	</g>
</g>
</svg>
